<svg width="600" height="600" viewBox="0 0 600 600" fill="none" xmlns="http://www.w3.org/2000/svg">
<path d="M600 458.88H0V459.18H600V458.88Z" fill="#FAFAFA"/>
<path d="M507.864 471.936H478.068V472.236H507.864V471.936Z" fill="#E0E0E0"/>
<path d="M526.74 471.78H516.672V472.08H526.74V471.78Z" fill="#E0E0E0"/>
<path d="M398.436 473.796H336.048V474.096H398.436V473.796Z" fill="#E0E0E0"/>
<path d="M321.324 477.048H312.024V477.348H321.324V477.048Z" fill="#E0E0E0"/>
<path d="M134.34 467.556H118.308V467.856H134.34V467.556Z" fill="#E0E0E0"/>
<path d="M222.312 467.556H141V467.856H222.312V467.556Z" fill="#E0E0E0"/>
<path d="M153 474.804H96.4316V475.104H153V474.804Z" fill="#E0E0E0"/>
<path d="M284.4 405.36H52.6916C50.8764 405.357 49.1366 404.634 47.8542 403.349C46.5718 402.064 45.8516 400.323 45.8516 398.508V72.792C45.8674 70.9872 46.5946 69.2616 47.8753 67.9899C49.156 66.7181 50.8867 66.0031 52.6916 66H284.4C286.217 66 287.96 66.7219 289.245 68.0069C290.53 69.2919 291.252 71.0347 291.252 72.852V398.508C291.252 400.325 290.53 402.068 289.245 403.353C287.96 404.638 286.217 405.36 284.4 405.36ZM52.6916 66.24C50.9559 66.2432 49.2925 66.9349 48.0664 68.1633C46.8402 69.3917 46.1516 71.0564 46.1516 72.792V398.508C46.1516 400.244 46.8402 401.908 48.0664 403.137C49.2925 404.365 50.9559 405.057 52.6916 405.06H284.4C286.136 405.057 287.801 404.366 289.029 403.137C290.257 401.909 290.948 400.245 290.952 398.508V72.792C290.948 71.0553 290.257 69.3906 289.029 68.1625C287.801 66.9345 286.136 66.2432 284.4 66.24H52.6916Z" fill="#E0E0E0"/>
<path d="M543.972 405.36H312.252C310.436 405.357 308.695 404.634 307.411 403.35C306.127 402.065 305.404 400.324 305.4 398.508V72.792C305.419 70.9861 306.149 69.2605 307.432 67.9891C308.714 66.7177 310.446 66.0031 312.252 66H543.972C545.775 66.0062 547.503 66.7227 548.781 67.9941C550.059 69.2654 550.785 70.9893 550.8 72.792V398.508C550.8 400.321 550.082 402.06 548.802 403.345C547.522 404.629 545.785 405.354 543.972 405.36ZM312.252 66.24C310.516 66.2432 308.851 66.9345 307.623 68.1625C306.395 69.3906 305.704 71.0553 305.7 72.792V398.508C305.704 400.245 306.395 401.909 307.623 403.137C308.851 404.366 310.516 405.057 312.252 405.06H543.972C545.709 405.057 547.374 404.366 548.602 403.137C549.83 401.909 550.521 400.245 550.524 398.508V72.792C550.521 71.0553 549.83 69.3906 548.602 68.1625C547.374 66.9345 545.709 66.2432 543.972 66.24H312.252Z" fill="#E0E0E0"/>
<path d="M410.1 458.88H452.496V381.936H410.1V458.88Z" fill="#E0E0E0"/>
<path d="M503.076 381.936H452.496V458.88H503.076V381.936Z" fill="#EBEBEB"/>
<g style="mix-blend-mode:multiply" opacity="0.7">
<path d="M410.1 391.932H503.52V388.452H410.1V391.932Z" fill="#E0E0E0"/>
</g>
<path d="M407.76 389.904H452.496V373.872H407.76V389.904Z" fill="#E0E0E0"/>
<path d="M505.416 373.884H452.496V389.916H505.416V373.884Z" fill="#EBEBEB"/>
<path d="M232.872 88.7881H90.1562V259.068H232.872V88.7881Z" fill="#E0E0E0"/>
<path d="M239.412 88.7881H93.2158V259.068H239.412V88.7881Z" fill="#EBEBEB"/>
<path d="M232.872 259.068H90.1562V271.2H232.872V259.068Z" fill="#E0E0E0"/>
<path d="M250.284 259.068H104.088V271.2H250.284V259.068Z" fill="#EBEBEB"/>
<path d="M230.268 249.924V97.9316L102.36 97.9316L102.36 249.924H230.268Z" fill="#F5F5F5"/>
<path d="M118.056 249.924L171.708 97.9316H197.028L143.388 249.924H118.056Z" fill="#FAFAFA"/>
<path d="M106.584 198.36C106.411 198.356 106.246 198.286 106.125 198.162C106.003 198.039 105.936 197.873 105.936 197.7V103.872C105.936 103.7 106.004 103.535 106.125 103.413C106.247 103.292 106.412 103.224 106.584 103.224C106.757 103.224 106.923 103.291 107.046 103.413C107.169 103.534 107.24 103.699 107.244 103.872V197.7C107.244 197.875 107.174 198.043 107.05 198.166C106.926 198.29 106.759 198.36 106.584 198.36Z" fill="#EBEBEB"/>
<path d="M148.824 249.924L202.476 97.9316H212.352L158.7 249.924H148.824Z" fill="#FAFAFA"/>
<path d="M230.256 249.924V97.9316H229.092V249.924H230.256Z" fill="#E0E0E0"/>
<path d="M241.56 109.62H98.8556L98.0156 101.484H240.72L241.56 109.62Z" fill="#E0E0E0"/>
<path d="M241.56 115.584H98.8556L98.0156 107.436H240.72L241.56 115.584Z" fill="#E0E0E0"/>
<path d="M241.56 122.736H98.8556L98.0156 114.588H240.72L241.56 122.736Z" fill="#E0E0E0"/>
<path d="M241.56 130.692H98.8556L98.0156 122.556H240.72L241.56 130.692Z" fill="#E0E0E0"/>
<path d="M241.56 140.232H98.8556L98.0156 132.084H240.72L241.56 140.232Z" fill="#E0E0E0"/>
<path d="M241.56 150.948H98.8556L98.0156 142.812H240.72L241.56 150.948Z" fill="#E0E0E0"/>
<path d="M492.432 88.7881H349.716V259.068H492.432V88.7881Z" fill="#E0E0E0"/>
<path d="M498.96 88.7881H352.764V259.068H498.96V88.7881Z" fill="#EBEBEB"/>
<path d="M492.432 259.068H349.716V271.2H492.432V259.068Z" fill="#E0E0E0"/>
<path d="M509.844 259.068H363.648V271.2H509.844V259.068Z" fill="#EBEBEB"/>
<path d="M489.828 249.924V97.9316L361.92 97.9316V249.924H489.828Z" fill="#F5F5F5"/>
<path d="M377.616 249.924L431.268 97.9316H456.588L402.936 249.924H377.616Z" fill="#FAFAFA"/>
<path d="M366.144 198.36C365.971 198.356 365.806 198.286 365.685 198.162C365.564 198.039 365.496 197.873 365.496 197.7V103.872C365.496 103.7 365.564 103.535 365.686 103.413C365.807 103.292 365.972 103.224 366.144 103.224C366.316 103.224 366.481 103.292 366.602 103.413C366.724 103.535 366.792 103.7 366.792 103.872V197.7C366.792 197.873 366.724 198.039 366.603 198.162C366.482 198.286 366.317 198.356 366.144 198.36Z" fill="#EBEBEB"/>
<path d="M408.384 249.924L462.036 97.9316H471.9L418.26 249.924H408.384Z" fill="#FAFAFA"/>
<path d="M489.816 249.924V97.9316H488.652V249.924H489.816Z" fill="#E0E0E0"/>
<path d="M501.12 109.62H358.416L357.564 101.484H500.28L501.12 109.62Z" fill="#E0E0E0"/>
<path d="M501.12 115.584H358.416L357.564 107.436H500.28L501.12 115.584Z" fill="#E0E0E0"/>
<path d="M501.12 122.736H358.416L357.564 114.588H500.28L501.12 122.736Z" fill="#E0E0E0"/>
<path d="M501.12 130.692H358.416L357.564 122.556H500.28L501.12 130.692Z" fill="#E0E0E0"/>
<path d="M501.12 140.232H358.416L357.564 132.084H500.28L501.12 140.232Z" fill="#E0E0E0"/>
<path d="M501.12 150.948H358.416L357.564 142.812H500.28L501.12 150.948Z" fill="#E0E0E0"/>
<path d="M381.648 350.952H353.148V458.88H381.648V350.952Z" fill="#E0E0E0"/>
<path d="M376.224 458.88H381.636V445.656H370.548L376.224 458.88Z" fill="#F5F5F5"/>
<path d="M105.072 350.952H76.5723V458.88H105.072V350.952Z" fill="#E0E0E0"/>
<path d="M381.648 350.952H100.344V451.608H381.648V350.952Z" fill="#F5F5F5"/>
<path d="M242.808 355.992V427.872H377.448V355.992H242.808Z" fill="#E0E0E0"/>
<path d="M104.544 355.992V427.872H239.184V355.992H104.544Z" fill="#E0E0E0"/>
<path d="M377.436 443.064V435.06H242.796V443.064H377.436Z" fill="#E0E0E0"/>
<path d="M239.172 443.076V435.072H104.532V443.076H239.172Z" fill="#E0E0E0"/>
<path d="M219.276 360.288H124.476C122.371 360.29 120.288 359.865 118.351 359.04C116.415 358.215 114.665 357.007 113.208 355.488H230.592C229.129 357.013 227.372 358.225 225.427 359.05C223.481 359.875 221.389 360.296 219.276 360.288Z" fill="#F5F5F5"/>
<path d="M358.044 360.288H263.244C261.139 360.29 259.055 359.865 257.119 359.04C255.182 358.215 253.433 357.007 251.976 355.488H369.36C367.899 357.016 366.143 358.23 364.197 359.056C362.251 359.881 360.157 360.3 358.044 360.288Z" fill="#F5F5F5"/>
<path d="M105.756 458.88H100.332V445.656H111.42L105.756 458.88Z" fill="#F5F5F5"/>
<g style="mix-blend-mode:multiply" opacity="0.4">
<path d="M306.672 284.688H274.944V350.952H306.672V284.688Z" fill="#E0E0E0"/>
</g>
<path d="M333.324 350.952H279.624L274.572 279.396H328.26L333.324 350.952Z" fill="#E0E0E0"/>
<path d="M339.432 350.952H281.148L276.096 279.396H334.368L339.432 350.952Z" fill="#F5F5F5"/>
<path d="M283.848 348.216L279.18 282.132H331.68L336.36 348.216H283.848Z" fill="#FAFAFA"/>
<path d="M296.556 333.42L293.976 296.928H318.972L321.552 333.42H296.556Z" fill="#F5F5F5"/>
<path d="M191.22 339.204C198.921 339.204 205.164 332.961 205.164 325.26C205.164 317.559 198.921 311.316 191.22 311.316C183.519 311.316 177.276 317.559 177.276 325.26C177.276 332.961 183.519 339.204 191.22 339.204Z" fill="#EBEBEB"/>
<path d="M215.1 345.852C222.801 345.852 229.044 339.609 229.044 331.908C229.044 324.207 222.801 317.964 215.1 317.964C207.399 317.964 201.156 324.207 201.156 331.908C201.156 339.609 207.399 345.852 215.1 345.852Z" fill="#EBEBEB"/>
<path d="M238.827 334.686C243.576 332.729 245.84 327.293 243.884 322.544C241.927 317.795 236.491 315.531 231.742 317.488C226.993 319.444 224.73 324.88 226.686 329.629C228.642 334.378 234.078 336.642 238.827 334.686Z" fill="#EBEBEB"/>
<path d="M214.369 318.321C215.19 313.251 211.746 308.475 206.676 307.654C201.605 306.832 196.83 310.277 196.008 315.347C195.187 320.417 198.632 325.193 203.702 326.014C208.772 326.835 213.548 323.391 214.369 318.321Z" fill="#EBEBEB"/>
<path d="M168.924 329.412C168.924 329.412 170.016 350.952 211.86 350.952C253.704 350.952 254.796 329.412 254.796 329.412H168.924Z" fill="#E0E0E0"/>
<path d="M130.284 343.572C130.284 343.572 116.652 320.076 135.564 301.368C135.564 301.368 140.496 304.584 140.364 308.916C140.232 313.248 135.072 314.328 136.188 317.94C137.304 321.552 142.188 325.14 139.008 328.08C135.828 331.02 139.524 333.708 139.308 337.368C139.092 341.028 130.284 343.572 130.284 343.572Z" fill="#E0E0E0"/>
<path d="M131.316 345.72C131.316 345.72 136.836 319.128 112.992 307.32C112.992 307.32 109.32 311.94 110.76 316.02C112.2 320.1 117.48 319.488 117.564 323.22C117.648 326.952 114.084 331.908 118.092 333.72C122.1 335.532 119.376 339.24 120.732 342.636C122.088 346.032 131.316 345.72 131.316 345.72Z" fill="#E0E0E0"/>
<path d="M110.4 333.42C110.4 333.42 110.856 350.952 128.232 350.952C145.608 350.952 146.064 333.42 146.064 333.42H110.4Z" fill="#EBEBEB"/>
<path d="M300 513.072C428.499 513.072 532.668 506.991 532.668 499.488C532.668 491.986 428.499 485.904 300 485.904C171.501 485.904 67.332 491.986 67.332 499.488C67.332 506.991 171.501 513.072 300 513.072Z" fill="#F5F5F5"/>
<path d="M216.54 326.928C215.828 326.881 215.161 326.566 214.674 326.046C214.186 325.525 213.915 324.839 213.915 324.126C213.915 323.413 214.186 322.727 214.674 322.206C215.161 321.686 215.828 321.371 216.54 321.324C223.404 321.324 229.188 311.496 229.188 299.856C229.234 299.145 229.55 298.477 230.07 297.99C230.59 297.503 231.277 297.231 231.99 297.231C232.703 297.231 233.389 297.503 233.909 297.99C234.43 298.477 234.745 299.145 234.792 299.856C234.792 315.036 226.8 326.928 216.54 326.928Z" fill="#B92C00"/>
<path d="M258.888 326.928C258.177 326.881 257.51 326.566 257.022 326.046C256.535 325.525 256.264 324.839 256.264 324.126C256.264 323.413 256.535 322.727 257.022 322.206C257.51 321.686 258.177 321.371 258.888 321.324C265.752 321.324 271.536 311.496 271.536 299.856C271.583 299.145 271.898 298.477 272.419 297.99C272.939 297.503 273.625 297.231 274.338 297.231C275.051 297.231 275.737 297.503 276.258 297.99C276.778 298.477 277.094 299.145 277.14 299.856C277.2 315.036 269.124 326.928 258.888 326.928Z" fill="#B92C00"/>
<path d="M301.2 326.928C300.488 326.881 299.821 326.566 299.334 326.045C298.846 325.525 298.575 324.839 298.575 324.126C298.575 323.413 298.846 322.726 299.334 322.206C299.821 321.686 300.488 321.37 301.2 321.324C308.052 321.324 313.848 311.496 313.848 299.856C313.848 299.114 314.142 298.403 314.667 297.878C315.191 297.354 315.902 297.06 316.644 297.06C317.385 297.06 318.096 297.354 318.621 297.878C319.145 298.403 319.44 299.114 319.44 299.856C319.476 315.036 311.472 326.928 301.2 326.928Z" fill="#B92C00"/>
<path d="M343.584 326.928C343.201 326.953 342.816 326.899 342.455 326.769C342.093 326.64 341.762 326.438 341.481 326.175C341.201 325.912 340.977 325.595 340.824 325.242C340.672 324.89 340.593 324.51 340.593 324.126C340.593 323.741 340.672 323.361 340.824 323.009C340.977 322.656 341.201 322.339 341.481 322.076C341.762 321.814 342.093 321.611 342.455 321.482C342.816 321.352 343.201 321.298 343.584 321.324C350.436 321.324 356.232 311.496 356.232 299.856C356.232 299.114 356.527 298.403 357.051 297.878C357.576 297.354 358.287 297.06 359.028 297.06C359.77 297.06 360.481 297.354 361.005 297.878C361.53 298.403 361.824 299.114 361.824 299.856C361.824 315.036 353.808 326.928 343.584 326.928Z" fill="#B92C00"/>
<path d="M385.92 326.928C385.209 326.881 384.542 326.566 384.055 326.046C383.567 325.525 383.296 324.839 383.296 324.126C383.296 323.413 383.567 322.727 384.055 322.206C384.542 321.686 385.209 321.371 385.92 321.324C392.784 321.324 398.568 311.496 398.568 299.856C398.615 299.145 398.93 298.477 399.451 297.99C399.971 297.503 400.657 297.231 401.37 297.231C402.083 297.231 402.77 297.503 403.29 297.99C403.81 298.477 404.126 299.145 404.172 299.856C404.172 315.036 396.156 326.928 385.92 326.928Z" fill="#B92C00"/>
<path d="M428.268 326.928C427.557 326.881 426.89 326.566 426.402 326.046C425.915 325.525 425.644 324.839 425.644 324.126C425.644 323.413 425.915 322.727 426.402 322.206C426.89 321.686 427.557 321.371 428.268 321.324C435.12 321.324 440.916 311.496 440.916 299.856C440.963 299.145 441.278 298.477 441.799 297.99C442.319 297.503 443.005 297.231 443.718 297.231C444.431 297.231 445.117 297.503 445.638 297.99C446.158 298.477 446.474 299.145 446.52 299.856C446.52 315.036 438.504 326.928 428.268 326.928Z" fill="#B92C00"/>
<g opacity="0.3">
<path d="M216.54 326.928C215.828 326.881 215.161 326.566 214.674 326.046C214.186 325.525 213.915 324.839 213.915 324.126C213.915 323.413 214.186 322.727 214.674 322.206C215.161 321.686 215.828 321.371 216.54 321.324C223.404 321.324 229.188 311.496 229.188 299.856C229.234 299.145 229.55 298.477 230.07 297.99C230.59 297.503 231.277 297.231 231.99 297.231C232.703 297.231 233.389 297.503 233.909 297.99C234.43 298.477 234.745 299.145 234.792 299.856C234.792 315.036 226.8 326.928 216.54 326.928Z" fill="black"/>
<path d="M258.887 326.928C258.176 326.881 257.509 326.566 257.021 326.046C256.534 325.525 256.263 324.839 256.263 324.126C256.263 323.413 256.534 322.727 257.021 322.206C257.509 321.686 258.176 321.371 258.887 321.324C265.751 321.324 271.535 311.496 271.535 299.856C271.582 299.145 271.897 298.477 272.418 297.99C272.938 297.503 273.624 297.231 274.337 297.231C275.05 297.231 275.736 297.503 276.257 297.99C276.777 298.477 277.093 299.145 277.139 299.856C277.199 315.036 269.123 326.928 258.887 326.928Z" fill="black"/>
<path d="M301.2 326.928C300.488 326.881 299.821 326.566 299.334 326.045C298.846 325.525 298.575 324.839 298.575 324.126C298.575 323.413 298.846 322.726 299.334 322.206C299.821 321.686 300.488 321.37 301.2 321.324C308.052 321.324 313.848 311.496 313.848 299.856C313.848 299.114 314.142 298.403 314.667 297.878C315.191 297.354 315.902 297.06 316.644 297.06C317.385 297.06 318.096 297.354 318.621 297.878C319.145 298.403 319.44 299.114 319.44 299.856C319.476 315.036 311.472 326.928 301.2 326.928Z" fill="black"/>
<path d="M343.583 326.928C343.2 326.953 342.815 326.899 342.454 326.769C342.092 326.64 341.761 326.438 341.48 326.175C341.2 325.912 340.976 325.595 340.823 325.242C340.671 324.89 340.592 324.51 340.592 324.126C340.592 323.741 340.671 323.361 340.823 323.009C340.976 322.656 341.2 322.339 341.48 322.076C341.761 321.814 342.092 321.611 342.454 321.482C342.815 321.352 343.2 321.298 343.583 321.324C350.435 321.324 356.231 311.496 356.231 299.856C356.231 299.114 356.526 298.403 357.05 297.878C357.575 297.354 358.286 297.06 359.027 297.06C359.769 297.06 360.48 297.354 361.004 297.878C361.529 298.403 361.823 299.114 361.823 299.856C361.823 315.036 353.807 326.928 343.583 326.928Z" fill="black"/>
<path d="M385.919 326.928C385.208 326.881 384.541 326.566 384.054 326.046C383.566 325.525 383.295 324.839 383.295 324.126C383.295 323.413 383.566 322.727 384.054 322.206C384.541 321.686 385.208 321.371 385.919 321.324C392.783 321.324 398.567 311.496 398.567 299.856C398.614 299.145 398.929 298.477 399.45 297.99C399.97 297.503 400.656 297.231 401.369 297.231C402.082 297.231 402.769 297.503 403.289 297.99C403.809 298.477 404.125 299.145 404.171 299.856C404.171 315.036 396.155 326.928 385.919 326.928Z" fill="black"/>
<path d="M428.267 326.928C427.556 326.881 426.889 326.566 426.401 326.046C425.914 325.525 425.643 324.839 425.643 324.126C425.643 323.413 425.914 322.727 426.401 322.206C426.889 321.686 427.556 321.371 428.267 321.324C435.119 321.324 440.915 311.496 440.915 299.856C440.962 299.145 441.277 298.477 441.798 297.99C442.318 297.503 443.004 297.231 443.717 297.231C444.43 297.231 445.116 297.503 445.637 297.99C446.157 298.477 446.473 299.145 446.519 299.856C446.519 315.036 438.503 326.928 428.267 326.928Z" fill="black"/>
</g>
<path d="M190.008 302.724H462.624C466.279 302.797 469.782 304.202 472.476 306.674C475.169 309.146 476.867 312.517 477.252 316.152L492.348 486.348C492.532 488.056 492.351 489.783 491.817 491.416C491.283 493.048 490.409 494.549 489.252 495.818C488.095 497.088 486.681 498.097 485.105 498.779C483.529 499.461 481.826 499.801 480.108 499.776H207.48C203.827 499.698 200.327 498.292 197.634 495.82C194.942 493.349 193.242 489.982 192.852 486.348L177.768 316.152C177.583 314.444 177.762 312.716 178.295 311.083C178.828 309.449 179.703 307.948 180.86 306.678C182.018 305.408 183.432 304.399 185.009 303.717C186.586 303.036 188.29 302.697 190.008 302.724Z" fill="#B92C00"/>
<path opacity="0.4" d="M190.008 302.724H462.624C466.279 302.797 469.782 304.202 472.476 306.674C475.169 309.146 476.867 312.517 477.252 316.152L492.348 486.348C492.532 488.056 492.351 489.783 491.817 491.416C491.283 493.048 490.409 494.549 489.252 495.818C488.095 497.088 486.681 498.097 485.105 498.779C483.529 499.461 481.826 499.801 480.108 499.776H207.48C203.827 499.698 200.327 498.292 197.634 495.82C194.942 493.349 193.242 489.982 192.852 486.348L177.768 316.152C177.583 314.444 177.762 312.716 178.295 311.083C178.828 309.449 179.703 307.948 180.86 306.678C182.018 305.408 183.432 304.399 185.009 303.717C186.586 303.036 188.29 302.697 190.008 302.724Z" fill="#FAFAFA"/>
<path d="M460.356 302.724H187.728C184.122 302.767 180.667 304.177 178.06 306.67C175.454 309.162 173.891 312.551 173.688 316.152L166.008 486.348C165.916 488.082 166.18 489.816 166.782 491.444C167.384 493.073 168.313 494.561 169.51 495.818C170.708 497.076 172.15 498.075 173.747 498.755C175.344 499.436 177.064 499.783 178.8 499.776H451.452C455.058 499.733 458.513 498.323 461.12 495.83C463.726 493.338 465.288 489.948 465.492 486.348L473.184 316.152C473.274 314.415 473.008 312.679 472.403 311.049C471.798 309.419 470.866 307.929 469.665 306.672C468.464 305.415 467.019 304.416 465.418 303.737C463.817 303.058 462.095 302.713 460.356 302.724Z" fill="#B92C00"/>
<path opacity="0.2" d="M460.356 302.724H187.728C184.122 302.767 180.667 304.177 178.06 306.67C175.454 309.162 173.891 312.551 173.688 316.152L166.008 486.348C165.916 488.082 166.18 489.816 166.782 491.444C167.384 493.073 168.313 494.561 169.51 495.818C170.708 497.076 172.15 498.075 173.747 498.755C175.344 499.436 177.064 499.783 178.8 499.776H451.452C455.058 499.733 458.513 498.323 461.12 495.83C463.726 493.338 465.288 489.948 465.492 486.348L473.184 316.152C473.274 314.415 473.008 312.679 472.403 311.049C471.798 309.419 470.866 307.929 469.665 306.672C468.464 305.415 467.019 304.416 465.418 303.737C463.817 303.058 462.095 302.713 460.356 302.724Z" fill="#FAFAFA"/>
<path d="M192.732 454.8L199.08 314.244C199.156 312.865 199.754 311.567 200.753 310.613C201.751 309.659 203.075 309.121 204.456 309.108H443.052C443.717 309.103 444.376 309.235 444.989 309.495C445.601 309.754 446.154 310.136 446.614 310.617C447.073 311.098 447.43 311.668 447.661 312.291C447.893 312.915 447.994 313.579 447.96 314.244L441.6 454.8C441.524 456.178 440.926 457.476 439.927 458.43C438.929 459.384 437.605 459.922 436.224 459.936H197.64C196.975 459.94 196.316 459.808 195.704 459.548C195.091 459.289 194.538 458.907 194.079 458.426C193.619 457.945 193.263 457.375 193.031 456.752C192.799 456.128 192.698 455.464 192.732 454.8Z" fill="#B92C00"/>
<path opacity="0.1" d="M192.732 454.8L199.08 314.244C199.156 312.865 199.754 311.567 200.753 310.613C201.751 309.659 203.075 309.121 204.456 309.108H443.052C443.717 309.103 444.376 309.235 444.989 309.495C445.601 309.754 446.154 310.136 446.614 310.617C447.073 311.098 447.43 311.668 447.661 312.291C447.893 312.915 447.994 313.579 447.96 314.244L441.6 454.8C441.524 456.178 440.926 457.476 439.927 458.43C438.929 459.384 437.605 459.922 436.224 459.936H197.64C196.975 459.94 196.316 459.808 195.704 459.548C195.091 459.289 194.538 458.907 194.079 458.426C193.619 457.945 193.263 457.375 193.031 456.752C192.799 456.128 192.698 455.464 192.732 454.8Z" fill="#FAFAFA"/>
<path opacity="0.1" d="M186 466.272L192.66 318.672C192.736 317.225 193.363 315.861 194.411 314.859C195.459 313.858 196.85 313.295 198.3 313.284H448.86C449.558 313.278 450.25 313.416 450.893 313.687C451.537 313.959 452.117 314.36 452.6 314.865C453.082 315.37 453.456 315.968 453.698 316.623C453.94 317.278 454.046 317.975 454.008 318.672L447.336 466.272C447.26 467.719 446.636 469.083 445.59 470.086C444.545 471.089 443.157 471.656 441.708 471.672H191.124C190.426 471.677 189.735 471.538 189.093 471.265C188.451 470.991 187.872 470.589 187.392 470.083C186.911 469.577 186.54 468.977 186.301 468.322C186.061 467.667 185.959 466.969 186 466.272Z" fill="black"/>
<path d="M179.808 478.176L186.756 324.216C186.85 322.711 187.506 321.296 188.596 320.253C189.686 319.21 191.128 318.615 192.636 318.588H454.008C454.737 318.582 455.46 318.726 456.132 319.01C456.803 319.294 457.41 319.712 457.913 320.239C458.417 320.767 458.808 321.392 459.06 322.075C459.313 322.759 459.424 323.488 459.384 324.216L452.4 478.176C452.307 479.682 451.65 481.097 450.56 482.14C449.471 483.182 448.028 483.777 446.52 483.804H185.184C184.455 483.812 183.731 483.67 183.059 483.386C182.386 483.103 181.779 482.684 181.275 482.157C180.771 481.629 180.381 481.003 180.128 480.319C179.876 479.634 179.767 478.905 179.808 478.176Z" fill="#FAFAFA"/>
<path d="M428.231 327.816C427.74 327.817 427.254 327.718 426.802 327.523C426.351 327.329 425.944 327.044 425.606 326.687C425.269 326.329 425.009 325.906 424.841 325.444C424.673 324.982 424.602 324.491 424.631 324C424.677 323.038 425.089 322.129 425.783 321.46C426.477 320.79 427.4 320.412 428.364 320.4C428.855 320.4 429.341 320.499 429.793 320.694C430.244 320.888 430.651 321.172 430.989 321.53C431.326 321.888 431.586 322.31 431.754 322.772C431.922 323.234 431.993 323.726 431.964 324.216C431.918 325.179 431.506 326.088 430.812 326.757C430.118 327.426 429.195 327.805 428.231 327.816Z" fill="#B92C00"/>
<path d="M385.884 327.816C385.392 327.817 384.906 327.718 384.454 327.523C384.003 327.329 383.596 327.044 383.259 326.687C382.921 326.329 382.661 325.906 382.493 325.444C382.326 324.982 382.254 324.491 382.284 324C382.33 323.038 382.742 322.129 383.435 321.46C384.129 320.79 385.052 320.412 386.016 320.4C386.507 320.4 386.994 320.499 387.445 320.694C387.897 320.888 388.304 321.172 388.641 321.53C388.978 321.888 389.239 322.31 389.406 322.772C389.574 323.234 389.645 323.726 389.616 324.216C389.573 325.18 389.162 326.091 388.468 326.76C387.773 327.43 386.848 327.808 385.884 327.816Z" fill="#B92C00"/>
<path d="M343.536 327.816C343.045 327.817 342.558 327.718 342.107 327.523C341.655 327.329 341.248 327.044 340.911 326.687C340.574 326.329 340.313 325.906 340.146 325.444C339.978 324.982 339.907 324.491 339.936 324C339.985 323.039 340.398 322.131 341.091 321.463C341.784 320.794 342.705 320.414 343.668 320.4C344.16 320.4 344.646 320.499 345.098 320.694C345.549 320.888 345.956 321.172 346.293 321.53C346.631 321.888 346.891 322.31 347.059 322.772C347.226 323.234 347.298 323.726 347.268 324.216C347.225 325.18 346.814 326.091 346.12 326.76C345.426 327.43 344.501 327.808 343.536 327.816Z" fill="#B92C00"/>
<path d="M301.2 327.816C300.709 327.817 300.222 327.718 299.771 327.523C299.319 327.329 298.912 327.044 298.575 326.687C298.238 326.329 297.977 325.906 297.81 325.444C297.642 324.982 297.571 324.491 297.6 324C297.652 323.038 298.067 322.13 298.762 321.462C299.457 320.794 300.38 320.414 301.344 320.4C301.836 320.4 302.322 320.499 302.774 320.694C303.225 320.888 303.632 321.172 303.969 321.53C304.307 321.888 304.567 322.31 304.735 322.772C304.902 323.234 304.974 323.726 304.944 324.216C304.901 325.182 304.488 326.094 303.792 326.765C303.095 327.435 302.167 327.811 301.2 327.816Z" fill="#B92C00"/>
<path d="M258.852 327.816C258.36 327.817 257.874 327.718 257.422 327.523C256.971 327.329 256.564 327.044 256.226 326.687C255.889 326.329 255.629 325.906 255.461 325.444C255.293 324.982 255.222 324.491 255.252 324C255.297 323.038 255.709 322.129 256.403 321.46C257.097 320.79 258.02 320.412 258.984 320.4C259.475 320.4 259.962 320.499 260.413 320.694C260.865 320.888 261.271 321.172 261.609 321.53C261.946 321.888 262.206 322.31 262.374 322.772C262.542 323.234 262.613 323.726 262.584 324.216C262.538 325.179 262.126 326.088 261.432 326.757C260.738 327.426 259.815 327.805 258.852 327.816Z" fill="#B92C00"/>
<path d="M216.504 327.816C216.012 327.817 215.526 327.718 215.074 327.523C214.623 327.329 214.216 327.044 213.879 326.687C213.542 326.329 213.281 325.906 213.113 325.444C212.946 324.982 212.874 324.491 212.904 324C212.95 323.038 213.362 322.129 214.055 321.46C214.749 320.79 215.672 320.412 216.636 320.4C217.127 320.4 217.614 320.499 218.065 320.694C218.517 320.888 218.924 321.172 219.261 321.53C219.598 321.888 219.859 322.31 220.026 322.772C220.194 323.234 220.265 323.726 220.236 324.216C220.193 325.18 219.782 326.091 219.088 326.76C218.393 327.43 217.469 327.808 216.504 327.816Z" fill="#B92C00"/>
<g opacity="0.1">
<path d="M428.231 327.816C427.74 327.817 427.254 327.718 426.802 327.523C426.351 327.329 425.944 327.044 425.606 326.687C425.269 326.329 425.009 325.906 424.841 325.444C424.673 324.982 424.602 324.491 424.631 324C424.677 323.038 425.089 322.129 425.783 321.46C426.477 320.79 427.4 320.412 428.364 320.4C428.855 320.4 429.341 320.499 429.793 320.694C430.244 320.888 430.651 321.172 430.989 321.53C431.326 321.888 431.586 322.31 431.754 322.772C431.922 323.234 431.993 323.726 431.964 324.216C431.918 325.179 431.506 326.088 430.812 326.757C430.118 327.426 429.195 327.805 428.231 327.816Z" fill="#FAFAFA"/>
<path d="M385.884 327.816C385.392 327.817 384.906 327.718 384.454 327.523C384.003 327.329 383.596 327.044 383.259 326.687C382.921 326.329 382.661 325.906 382.493 325.444C382.326 324.982 382.254 324.491 382.284 324C382.33 323.038 382.742 322.129 383.435 321.46C384.129 320.79 385.052 320.412 386.016 320.4C386.507 320.4 386.994 320.499 387.445 320.694C387.897 320.888 388.304 321.172 388.641 321.53C388.978 321.888 389.239 322.31 389.406 322.772C389.574 323.234 389.645 323.726 389.616 324.216C389.573 325.18 389.162 326.091 388.468 326.76C387.773 327.43 386.848 327.808 385.884 327.816Z" fill="#FAFAFA"/>
<path d="M343.536 327.816C343.045 327.817 342.558 327.718 342.107 327.523C341.655 327.329 341.248 327.044 340.911 326.687C340.574 326.329 340.313 325.906 340.146 325.444C339.978 324.982 339.907 324.491 339.936 324C339.985 323.039 340.398 322.131 341.091 321.463C341.784 320.794 342.705 320.414 343.668 320.4C344.16 320.4 344.646 320.499 345.098 320.694C345.549 320.888 345.956 321.172 346.293 321.53C346.631 321.888 346.891 322.31 347.059 322.772C347.226 323.234 347.298 323.726 347.268 324.216C347.225 325.18 346.814 326.091 346.12 326.76C345.426 327.43 344.501 327.808 343.536 327.816Z" fill="#FAFAFA"/>
<path d="M301.2 327.816C300.709 327.817 300.222 327.718 299.771 327.523C299.319 327.329 298.912 327.044 298.575 326.687C298.238 326.329 297.977 325.906 297.81 325.444C297.642 324.982 297.571 324.491 297.6 324C297.652 323.038 298.067 322.13 298.762 321.462C299.457 320.794 300.38 320.414 301.344 320.4C301.836 320.4 302.322 320.499 302.774 320.694C303.225 320.888 303.632 321.172 303.969 321.53C304.307 321.888 304.567 322.31 304.735 322.772C304.902 323.234 304.974 323.726 304.944 324.216C304.901 325.182 304.488 326.094 303.792 326.765C303.095 327.435 302.167 327.811 301.2 327.816Z" fill="#FAFAFA"/>
<path d="M258.852 327.816C258.36 327.817 257.874 327.718 257.422 327.523C256.971 327.329 256.564 327.044 256.226 326.687C255.889 326.329 255.629 325.906 255.461 325.444C255.293 324.982 255.222 324.491 255.252 324C255.297 323.038 255.709 322.129 256.403 321.46C257.097 320.79 258.02 320.412 258.984 320.4C259.475 320.4 259.962 320.499 260.413 320.694C260.865 320.888 261.271 321.172 261.609 321.53C261.946 321.888 262.206 322.31 262.374 322.772C262.542 323.234 262.613 323.726 262.584 324.216C262.538 325.179 262.126 326.088 261.432 326.757C260.738 327.426 259.815 327.805 258.852 327.816Z" fill="#FAFAFA"/>
<path d="M216.504 327.816C216.012 327.817 215.526 327.718 215.074 327.523C214.623 327.329 214.216 327.044 213.879 326.687C213.542 326.329 213.281 325.906 213.113 325.444C212.946 324.982 212.874 324.491 212.904 324C212.95 323.038 213.362 322.129 214.055 321.46C214.749 320.79 215.672 320.412 216.636 320.4C217.127 320.4 217.614 320.499 218.065 320.694C218.517 320.888 218.924 321.172 219.261 321.53C219.598 321.888 219.859 322.31 220.026 322.772C220.194 323.234 220.265 323.726 220.236 324.216C220.193 325.18 219.782 326.091 219.088 326.76C218.393 327.43 217.469 327.808 216.504 327.816Z" fill="#FAFAFA"/>
</g>
<path d="M227.088 341.232H205.788C205.48 341.234 205.174 341.173 204.89 341.051C204.606 340.929 204.351 340.75 204.14 340.524C203.929 340.299 203.767 340.032 203.665 339.74C203.562 339.449 203.521 339.14 203.544 338.832C203.568 338.203 203.829 337.606 204.274 337.161C204.719 336.716 205.315 336.455 205.944 336.432H227.244C227.553 336.429 227.859 336.491 228.143 336.613C228.427 336.734 228.682 336.914 228.893 337.139C229.104 337.365 229.266 337.632 229.368 337.923C229.471 338.214 229.512 338.524 229.488 338.832C229.465 339.461 229.204 340.057 228.759 340.502C228.314 340.947 227.717 341.208 227.088 341.232Z" fill="#B92C00"/>
<path d="M269.436 341.232H248.136C247.827 341.234 247.521 341.173 247.238 341.051C246.954 340.929 246.698 340.75 246.487 340.524C246.276 340.299 246.115 340.032 246.012 339.74C245.91 339.449 245.869 339.14 245.892 338.832C245.917 338.193 246.185 337.587 246.643 337.141C247.101 336.694 247.713 336.44 248.352 336.432H269.64C269.949 336.429 270.256 336.491 270.54 336.613C270.825 336.734 271.081 336.913 271.293 337.139C271.504 337.364 271.667 337.631 271.771 337.922C271.875 338.213 271.918 338.523 271.896 338.832C271.872 339.471 271.603 340.076 271.145 340.523C270.687 340.969 270.076 341.223 269.436 341.232Z" fill="#B92C00"/>
<path d="M311.784 341.232H290.484C290.175 341.234 289.868 341.173 289.584 341.051C289.3 340.929 289.043 340.75 288.832 340.525C288.62 340.299 288.457 340.033 288.353 339.741C288.249 339.45 288.207 339.14 288.228 338.832C288.253 338.193 288.521 337.587 288.979 337.141C289.437 336.694 290.049 336.44 290.688 336.432H312C312.309 336.429 312.615 336.491 312.899 336.613C313.182 336.734 313.438 336.914 313.649 337.139C313.86 337.365 314.021 337.632 314.124 337.923C314.226 338.214 314.267 338.524 314.244 338.832C314.222 339.472 313.954 340.079 313.496 340.526C313.038 340.973 312.424 341.226 311.784 341.232Z" fill="#B92C00"/>
<path d="M354.12 341.232H332.82C332.511 341.234 332.205 341.173 331.921 341.051C331.637 340.929 331.382 340.75 331.171 340.524C330.96 340.299 330.798 340.032 330.696 339.74C330.593 339.449 330.552 339.14 330.576 338.832C330.599 338.203 330.86 337.606 331.305 337.161C331.75 336.716 332.347 336.455 332.976 336.432H354.276C354.584 336.429 354.89 336.491 355.174 336.613C355.458 336.734 355.713 336.914 355.924 337.139C356.135 337.365 356.297 337.632 356.4 337.923C356.502 338.214 356.543 338.524 356.52 338.832C356.496 339.461 356.235 340.057 355.79 340.502C355.345 340.947 354.749 341.208 354.12 341.232Z" fill="#B92C00"/>
<path d="M396.468 341.232H375.168C374.86 341.234 374.554 341.173 374.27 341.051C373.986 340.929 373.731 340.75 373.52 340.524C373.309 340.299 373.147 340.032 373.044 339.74C372.942 339.449 372.901 339.14 372.924 338.832C372.949 338.193 373.218 337.587 373.675 337.141C374.133 336.694 374.745 336.44 375.384 336.432H396.684C396.993 336.429 397.299 336.491 397.583 336.613C397.867 336.734 398.122 336.914 398.333 337.139C398.544 337.365 398.706 337.632 398.808 337.923C398.911 338.214 398.952 338.524 398.928 338.832C398.904 339.471 398.635 340.076 398.177 340.523C397.719 340.969 397.108 341.223 396.468 341.232Z" fill="#B92C00"/>
<path d="M438.816 341.232H417.516C417.207 341.234 416.901 341.173 416.617 341.051C416.334 340.929 416.078 340.75 415.867 340.524C415.656 340.299 415.495 340.032 415.392 339.74C415.29 339.449 415.249 339.14 415.272 338.832C415.296 338.193 415.565 337.587 416.023 337.141C416.481 336.694 417.093 336.44 417.732 336.432H439.02C439.329 336.429 439.636 336.491 439.92 336.613C440.204 336.734 440.461 336.913 440.672 337.139C440.884 337.364 441.047 337.631 441.151 337.922C441.255 338.213 441.297 338.523 441.276 338.832C441.251 339.471 440.983 340.076 440.525 340.523C440.067 340.969 439.455 341.223 438.816 341.232Z" fill="#B92C00"/>
<g opacity="0.3">
<path d="M227.088 341.232H205.788C205.48 341.234 205.174 341.173 204.89 341.051C204.606 340.929 204.351 340.75 204.14 340.524C203.929 340.299 203.767 340.032 203.665 339.74C203.562 339.449 203.521 339.14 203.544 338.832C203.568 338.203 203.829 337.606 204.274 337.161C204.719 336.716 205.315 336.455 205.944 336.432H227.244C227.553 336.429 227.859 336.491 228.143 336.613C228.427 336.734 228.682 336.914 228.893 337.139C229.104 337.365 229.266 337.632 229.368 337.923C229.471 338.214 229.512 338.524 229.488 338.832C229.465 339.461 229.204 340.057 228.759 340.502C228.314 340.947 227.717 341.208 227.088 341.232Z" fill="black"/>
<path d="M269.436 341.232H248.136C247.827 341.234 247.521 341.173 247.238 341.051C246.954 340.929 246.698 340.75 246.487 340.524C246.276 340.299 246.115 340.032 246.012 339.74C245.91 339.449 245.869 339.14 245.892 338.832C245.917 338.193 246.185 337.587 246.643 337.141C247.101 336.694 247.713 336.44 248.352 336.432H269.64C269.949 336.429 270.256 336.491 270.54 336.613C270.825 336.734 271.081 336.913 271.293 337.139C271.504 337.364 271.667 337.631 271.771 337.922C271.875 338.213 271.918 338.523 271.896 338.832C271.872 339.471 271.603 340.076 271.145 340.523C270.687 340.969 270.076 341.223 269.436 341.232Z" fill="black"/>
<path d="M311.784 341.232H290.484C290.175 341.234 289.868 341.173 289.584 341.051C289.3 340.929 289.043 340.75 288.832 340.525C288.62 340.299 288.457 340.033 288.353 339.741C288.249 339.45 288.207 339.14 288.228 338.832C288.253 338.193 288.521 337.587 288.979 337.141C289.437 336.694 290.049 336.44 290.688 336.432H312C312.309 336.429 312.615 336.491 312.899 336.613C313.182 336.734 313.438 336.914 313.649 337.139C313.86 337.365 314.021 337.632 314.124 337.923C314.226 338.214 314.267 338.524 314.244 338.832C314.222 339.472 313.954 340.079 313.496 340.526C313.038 340.973 312.424 341.226 311.784 341.232Z" fill="black"/>
<path d="M354.121 341.232H332.821C332.512 341.234 332.206 341.173 331.922 341.051C331.638 340.929 331.383 340.75 331.172 340.524C330.961 340.299 330.799 340.032 330.697 339.74C330.594 339.449 330.553 339.14 330.577 338.832C330.6 338.203 330.861 337.606 331.306 337.161C331.751 336.716 332.348 336.455 332.977 336.432H354.277C354.585 336.429 354.891 336.491 355.175 336.613C355.459 336.734 355.714 336.914 355.925 337.139C356.136 337.365 356.298 337.632 356.401 337.923C356.503 338.214 356.544 338.524 356.521 338.832C356.497 339.461 356.236 340.057 355.791 340.502C355.346 340.947 354.75 341.208 354.121 341.232Z" fill="black"/>
<path d="M396.468 341.232H375.168C374.86 341.234 374.554 341.173 374.27 341.051C373.986 340.929 373.731 340.75 373.52 340.524C373.309 340.299 373.147 340.032 373.044 339.74C372.942 339.449 372.901 339.14 372.924 338.832C372.949 338.193 373.218 337.587 373.675 337.141C374.133 336.694 374.745 336.44 375.384 336.432H396.684C396.993 336.429 397.299 336.491 397.583 336.613C397.867 336.734 398.122 336.914 398.333 337.139C398.544 337.365 398.706 337.632 398.808 337.923C398.911 338.214 398.952 338.524 398.928 338.832C398.904 339.471 398.635 340.076 398.177 340.523C397.719 340.969 397.108 341.223 396.468 341.232Z" fill="black"/>
<path d="M438.816 341.232H417.516C417.207 341.234 416.901 341.173 416.617 341.051C416.334 340.929 416.078 340.75 415.867 340.524C415.656 340.299 415.495 340.032 415.392 339.74C415.29 339.449 415.249 339.14 415.272 338.832C415.296 338.193 415.565 337.587 416.023 337.141C416.481 336.694 417.093 336.44 417.732 336.432H439.02C439.329 336.429 439.636 336.491 439.92 336.613C440.204 336.734 440.461 336.913 440.672 337.139C440.884 337.364 441.047 337.631 441.151 337.922C441.255 338.213 441.297 338.523 441.276 338.832C441.251 339.471 440.983 340.076 440.525 340.523C440.067 340.969 439.455 341.223 438.816 341.232Z" fill="black"/>
</g>
<path d="M228.264 386.556H200.52C199.912 386.559 199.309 386.437 198.749 386.199C198.189 385.96 197.684 385.61 197.264 385.17C196.844 384.73 196.518 384.209 196.306 383.638C196.094 383.068 196.001 382.46 196.032 381.852L197.232 354.108C197.305 352.847 197.853 351.661 198.766 350.788C199.679 349.915 200.889 349.42 202.152 349.404H229.896C230.505 349.402 231.107 349.524 231.667 349.762C232.227 350 232.732 350.35 233.152 350.791C233.573 351.231 233.898 351.752 234.11 352.323C234.322 352.893 234.415 353.501 234.384 354.108L233.184 381.852C233.109 383.112 232.56 384.297 231.647 385.17C230.735 386.042 229.526 386.537 228.264 386.556Z" fill="#B92C00"/>
<path d="M270.612 386.556H242.868C242.259 386.56 241.655 386.44 241.094 386.202C240.534 385.964 240.028 385.615 239.607 385.174C239.187 384.733 238.861 384.211 238.65 383.64C238.439 383.069 238.347 382.46 238.38 381.852L239.58 354.108C239.652 352.847 240.2 351.661 241.113 350.788C242.026 349.915 243.236 349.42 244.5 349.404H272.28C272.889 349.402 273.492 349.524 274.052 349.762C274.613 350 275.119 350.35 275.54 350.79C275.961 351.23 276.288 351.751 276.501 352.322C276.714 352.892 276.809 353.5 276.78 354.108L275.52 381.852C275.45 383.112 274.904 384.299 273.993 385.172C273.082 386.045 271.873 386.54 270.612 386.556Z" fill="#B92C00"/>
<path d="M312.948 386.556H285.216C284.607 386.559 284.004 386.437 283.444 386.199C282.883 385.961 282.377 385.611 281.956 385.171C281.535 384.731 281.208 384.21 280.995 383.639C280.782 383.069 280.687 382.461 280.716 381.852L281.916 354.108C281.989 352.847 282.537 351.661 283.45 350.788C284.363 349.915 285.573 349.421 286.836 349.404H314.568C315.177 349.4 315.781 349.521 316.341 349.758C316.902 349.996 317.408 350.346 317.828 350.787C318.249 351.227 318.575 351.749 318.786 352.321C318.997 352.892 319.089 353.5 319.056 354.108L317.856 381.852C317.784 383.111 317.237 384.296 316.327 385.169C315.416 386.042 314.209 386.537 312.948 386.556Z" fill="#B92C00"/>
<path d="M355.296 386.556H327.6C326.99 386.56 326.386 386.44 325.825 386.202C325.264 385.965 324.757 385.615 324.335 385.174C323.914 384.734 323.587 384.212 323.375 383.641C323.162 383.07 323.069 382.461 323.1 381.852L324.3 354.108C324.369 352.848 324.915 351.662 325.826 350.789C326.737 349.915 327.946 349.421 329.208 349.404H356.952C357.56 349.402 358.163 349.524 358.723 349.762C359.282 350 359.788 350.35 360.208 350.791C360.628 351.231 360.954 351.752 361.166 352.323C361.377 352.893 361.471 353.501 361.44 354.108L360.24 381.852C360.167 383.117 359.615 384.308 358.697 385.181C357.779 386.055 356.563 386.546 355.296 386.556Z" fill="#B92C00"/>
<path d="M397.644 386.556H369.9C369.292 386.559 368.689 386.437 368.129 386.199C367.569 385.96 367.064 385.61 366.644 385.17C366.224 384.73 365.898 384.209 365.686 383.638C365.474 383.068 365.381 382.46 365.412 381.852L366.612 354.108C366.685 352.847 367.233 351.661 368.146 350.788C369.059 349.915 370.269 349.421 371.532 349.404H399.264C399.874 349.4 400.477 349.521 401.039 349.758C401.6 349.996 402.107 350.346 402.528 350.786C402.95 351.227 403.277 351.748 403.489 352.32C403.702 352.891 403.795 353.5 403.764 354.108L402.564 381.852C402.489 383.112 401.94 384.297 401.027 385.17C400.115 386.042 398.906 386.537 397.644 386.556Z" fill="#B92C00"/>
<path d="M439.98 386.556H412.248C411.639 386.56 411.036 386.44 410.475 386.202C409.915 385.964 409.409 385.615 408.988 385.174C408.568 384.733 408.242 384.211 408.031 383.64C407.82 383.069 407.728 382.46 407.76 381.852L408.96 354.108C409.033 352.847 409.581 351.661 410.494 350.788C411.407 349.915 412.617 349.42 413.88 349.404H441.612C442.221 349.402 442.825 349.524 443.385 349.762C443.945 350 444.452 350.35 444.873 350.79C445.294 351.23 445.621 351.751 445.834 352.322C446.047 352.892 446.142 353.5 446.112 354.108L444.852 381.852C444.783 383.106 444.243 384.288 443.339 385.16C442.436 386.032 441.236 386.531 439.98 386.556Z" fill="#B92C00"/>
<g opacity="0.8">
<path d="M228.264 386.556H200.52C199.912 386.559 199.309 386.437 198.749 386.199C198.189 385.96 197.684 385.61 197.264 385.17C196.844 384.73 196.518 384.209 196.306 383.638C196.094 383.068 196.001 382.46 196.032 381.852L197.232 354.108C197.305 352.847 197.853 351.661 198.766 350.788C199.679 349.915 200.889 349.42 202.152 349.404H229.896C230.505 349.402 231.107 349.524 231.667 349.762C232.227 350 232.732 350.35 233.152 350.791C233.573 351.231 233.898 351.752 234.11 352.323C234.322 352.893 234.415 353.501 234.384 354.108L233.184 381.852C233.109 383.112 232.56 384.297 231.647 385.17C230.735 386.042 229.526 386.537 228.264 386.556Z" fill="#FAFAFA"/>
<path d="M270.612 386.556H242.868C242.26 386.56 241.656 386.44 241.095 386.202C240.535 385.964 240.029 385.615 239.608 385.174C239.188 384.733 238.862 384.211 238.651 383.64C238.44 383.069 238.348 382.46 238.38 381.852L239.58 354.108C239.653 352.847 240.201 351.661 241.114 350.788C242.027 349.915 243.237 349.42 244.5 349.404H272.28C272.889 349.402 273.493 349.524 274.053 349.762C274.614 350 275.12 350.35 275.541 350.79C275.962 351.23 276.289 351.751 276.502 352.322C276.715 352.892 276.81 353.5 276.78 354.108L275.521 381.852C275.451 383.112 274.905 384.299 273.994 385.172C273.083 386.045 271.874 386.54 270.612 386.556Z" fill="#FAFAFA"/>
<path d="M312.948 386.556H285.216C284.607 386.559 284.004 386.437 283.444 386.199C282.883 385.961 282.377 385.611 281.956 385.171C281.535 384.731 281.208 384.21 280.995 383.639C280.782 383.069 280.687 382.461 280.716 381.852L281.916 354.108C281.989 352.847 282.537 351.661 283.45 350.788C284.363 349.915 285.573 349.421 286.836 349.404H314.568C315.177 349.4 315.781 349.521 316.341 349.758C316.902 349.996 317.408 350.346 317.828 350.787C318.249 351.227 318.575 351.749 318.786 352.321C318.997 352.892 319.089 353.5 319.056 354.108L317.856 381.852C317.784 383.111 317.237 384.296 316.327 385.169C315.416 386.042 314.209 386.537 312.948 386.556Z" fill="#FAFAFA"/>
<path d="M355.297 386.556H327.601C326.991 386.56 326.387 386.44 325.826 386.202C325.265 385.965 324.758 385.615 324.336 385.174C323.915 384.734 323.588 384.212 323.376 383.641C323.163 383.07 323.069 382.461 323.101 381.852L324.301 354.108C324.37 352.848 324.916 351.662 325.827 350.789C326.738 349.915 327.947 349.421 329.209 349.404H356.953C357.561 349.402 358.164 349.524 358.724 349.762C359.283 350 359.789 350.35 360.209 350.791C360.629 351.231 360.955 351.752 361.167 352.323C361.378 352.893 361.472 353.501 361.441 354.108L360.241 381.852C360.167 383.117 359.616 384.308 358.698 385.181C357.78 386.055 356.564 386.546 355.297 386.556Z" fill="#FAFAFA"/>
<path d="M397.644 386.556H369.9C369.292 386.559 368.689 386.437 368.129 386.199C367.569 385.96 367.064 385.61 366.644 385.17C366.224 384.73 365.898 384.209 365.686 383.638C365.474 383.068 365.381 382.46 365.412 381.852L366.612 354.108C366.685 352.847 367.233 351.661 368.146 350.788C369.059 349.915 370.269 349.421 371.532 349.404H399.264C399.874 349.4 400.477 349.521 401.039 349.758C401.6 349.996 402.107 350.346 402.528 350.786C402.95 351.227 403.277 351.748 403.489 352.32C403.702 352.891 403.795 353.5 403.764 354.108L402.564 381.852C402.489 383.112 401.94 384.297 401.027 385.17C400.115 386.042 398.906 386.537 397.644 386.556Z" fill="#FAFAFA"/>
<path d="M439.98 386.556H412.248C411.639 386.56 411.036 386.44 410.475 386.202C409.915 385.964 409.409 385.615 408.988 385.174C408.568 384.733 408.242 384.211 408.031 383.64C407.82 383.069 407.728 382.46 407.76 381.852L408.96 354.108C409.033 352.847 409.581 351.661 410.494 350.788C411.407 349.915 412.617 349.42 413.88 349.404H441.612C442.221 349.402 442.825 349.524 443.385 349.762C443.945 350 444.452 350.35 444.873 350.79C445.294 351.23 445.621 351.751 445.834 352.322C446.047 352.892 446.142 353.5 446.112 354.108L444.852 381.852C444.783 383.106 444.243 384.288 443.339 385.16C442.436 386.032 441.236 386.531 439.98 386.556Z" fill="#FAFAFA"/>
</g>
<path d="M226.32 429.6H198.576C197.967 429.603 197.365 429.481 196.805 429.243C196.245 429.004 195.74 428.654 195.32 428.214C194.899 427.774 194.574 427.253 194.362 426.682C194.15 426.112 194.057 425.504 194.088 424.896L195.288 397.152C195.363 395.892 195.912 394.707 196.825 393.835C197.737 392.962 198.946 392.467 200.208 392.448H228C228.608 392.446 229.211 392.568 229.771 392.806C230.331 393.044 230.836 393.394 231.256 393.834C231.676 394.275 232.002 394.796 232.214 395.366C232.426 395.937 232.519 396.545 232.488 397.152L231.288 424.896C231.212 426.165 230.656 427.356 229.733 428.23C228.811 429.104 227.59 429.593 226.32 429.6Z" fill="#B92C00"/>
<path d="M268.667 429.6H240.924C240.315 429.603 239.712 429.481 239.153 429.243C238.593 429.004 238.087 428.654 237.667 428.214C237.247 427.774 236.921 427.253 236.71 426.682C236.498 426.112 236.404 425.504 236.435 424.896L237.635 397.152C237.708 395.891 238.256 394.705 239.169 393.832C240.082 392.959 241.292 392.464 242.556 392.448H270.288C270.902 392.444 271.51 392.566 272.076 392.806C272.641 393.047 273.151 393.401 273.574 393.846C273.997 394.291 274.324 394.819 274.535 395.396C274.746 395.973 274.836 396.587 274.799 397.2L273.599 424.896C273.529 426.16 272.98 427.35 272.064 428.224C271.148 429.098 269.934 429.59 268.667 429.6Z" fill="#B92C00"/>
<path d="M311.004 429.6H283.272C282.663 429.604 282.059 429.484 281.499 429.246C280.938 429.009 280.432 428.659 280.012 428.218C279.591 427.777 279.265 427.255 279.054 426.684C278.843 426.113 278.751 425.504 278.784 424.896L279.984 397.152C280.057 395.891 280.605 394.705 281.518 393.832C282.431 392.959 283.641 392.464 284.904 392.448H312.636C313.245 392.444 313.848 392.565 314.409 392.802C314.97 393.04 315.476 393.39 315.896 393.831C316.316 394.271 316.642 394.793 316.853 395.365C317.065 395.936 317.157 396.544 317.124 397.152L315.924 424.896C315.851 426.157 315.303 427.344 314.39 428.217C313.477 429.09 312.267 429.584 311.004 429.6Z" fill="#B92C00"/>
<path d="M353.352 429.6H325.62C325.011 429.602 324.408 429.481 323.848 429.242C323.287 429.004 322.781 428.654 322.36 428.214C321.939 427.774 321.612 427.253 321.399 426.683C321.186 426.112 321.091 425.504 321.12 424.896L322.32 397.152C322.39 395.892 322.936 394.705 323.847 393.832C324.758 392.959 325.967 392.464 327.228 392.448H354.972C355.59 392.437 356.204 392.554 356.774 392.791C357.344 393.029 357.859 393.382 358.287 393.828C358.714 394.275 359.044 394.805 359.256 395.385C359.469 395.965 359.559 396.583 359.52 397.2L358.32 424.944C358.235 426.205 357.675 427.386 356.753 428.25C355.831 429.114 354.616 429.597 353.352 429.6Z" fill="#B92C00"/>
<path d="M395.7 429.599H367.956C367.347 429.602 366.745 429.48 366.185 429.242C365.625 429.004 365.119 428.654 364.699 428.213C364.279 427.773 363.954 427.252 363.742 426.681C363.53 426.111 363.437 425.503 363.468 424.895L364.668 397.151C364.732 395.881 365.277 394.682 366.193 393.8C367.11 392.917 368.328 392.416 369.6 392.399H397.344C397.952 392.397 398.555 392.519 399.115 392.757C399.675 392.995 400.18 393.345 400.6 393.786C401.02 394.226 401.346 394.747 401.558 395.318C401.769 395.888 401.863 396.496 401.832 397.103L400.632 424.847C400.568 426.118 400.022 427.317 399.106 428.199C398.19 429.082 396.972 429.583 395.7 429.599Z" fill="#B92C00"/>
<path d="M438 429.6H410.304C409.695 429.604 409.092 429.484 408.531 429.246C407.97 429.008 407.464 428.658 407.044 428.218C406.623 427.777 406.298 427.255 406.086 426.684C405.875 426.113 405.783 425.504 405.816 424.896L407.016 397.152C407.089 395.891 407.637 394.705 408.55 393.832C409.463 392.959 410.673 392.464 411.936 392.448H439.668C440.277 392.446 440.88 392.568 441.441 392.806C442.001 393.044 442.507 393.394 442.928 393.834C443.349 394.274 443.676 394.795 443.889 395.366C444.103 395.936 444.197 396.544 444.168 397.152L442.908 424.896C442.838 426.156 442.293 427.343 441.382 428.216C440.47 429.089 439.262 429.584 438 429.6Z" fill="#B92C00"/>
<g opacity="0.8">
<path d="M226.32 429.599H198.576C197.967 429.602 197.365 429.48 196.805 429.242C196.245 429.003 195.74 428.653 195.32 428.213C194.899 427.773 194.574 427.252 194.362 426.681C194.15 426.111 194.057 425.503 194.088 424.895L195.288 397.151C195.363 395.891 195.912 394.706 196.825 393.834C197.737 392.961 198.946 392.466 200.208 392.447H228C228.608 392.445 229.211 392.567 229.771 392.805C230.331 393.043 230.836 393.393 231.256 393.833C231.676 394.274 232.002 394.795 232.214 395.365C232.426 395.936 232.519 396.544 232.488 397.151L231.288 424.895C231.212 426.164 230.656 427.355 229.733 428.229C228.811 429.103 227.59 429.592 226.32 429.599Z" fill="#FAFAFA"/>
<path d="M268.667 429.599H240.924C240.315 429.602 239.712 429.48 239.153 429.242C238.593 429.003 238.087 428.653 237.667 428.213C237.247 427.773 236.921 427.252 236.71 426.681C236.498 426.111 236.404 425.503 236.435 424.895L237.635 397.151C237.708 395.89 238.256 394.704 239.169 393.831C240.082 392.958 241.292 392.463 242.556 392.447H270.288C270.902 392.443 271.51 392.565 272.076 392.805C272.641 393.046 273.151 393.4 273.574 393.845C273.997 394.29 274.324 394.818 274.535 395.395C274.746 395.972 274.836 396.586 274.799 397.199L273.599 424.895C273.529 426.159 272.98 427.349 272.064 428.223C271.148 429.097 269.934 429.589 268.667 429.599Z" fill="#FAFAFA"/>
<path d="M311.004 429.599H283.272C282.663 429.604 282.059 429.483 281.499 429.245C280.938 429.008 280.432 428.658 280.012 428.217C279.591 427.776 279.265 427.254 279.054 426.683C278.843 426.112 278.751 425.503 278.784 424.895L279.984 397.151C280.057 395.89 280.605 394.704 281.518 393.831C282.431 392.958 283.641 392.463 284.904 392.447H312.636C313.245 392.443 313.848 392.564 314.409 392.801C314.97 393.039 315.476 393.389 315.896 393.83C316.316 394.27 316.642 394.792 316.853 395.364C317.065 395.935 317.157 396.543 317.124 397.151L315.924 424.895C315.851 426.156 315.303 427.343 314.39 428.216C313.477 429.089 312.267 429.583 311.004 429.599Z" fill="#FAFAFA"/>
<path d="M353.351 429.599H325.619C325.01 429.601 324.407 429.48 323.847 429.242C323.286 429.003 322.78 428.654 322.359 428.213C321.938 427.773 321.611 427.252 321.398 426.682C321.185 426.111 321.09 425.503 321.119 424.895L322.319 397.151C322.389 395.891 322.935 394.704 323.846 393.831C324.757 392.958 325.966 392.463 327.227 392.447H354.971C355.589 392.436 356.203 392.553 356.773 392.79C357.343 393.028 357.858 393.381 358.286 393.827C358.713 394.274 359.043 394.804 359.255 395.384C359.468 395.964 359.558 396.582 359.519 397.199L358.319 424.943C358.234 426.204 357.674 427.385 356.752 428.249C355.83 429.113 354.615 429.596 353.351 429.599Z" fill="#FAFAFA"/>
<path d="M395.7 429.599H367.956C367.347 429.602 366.745 429.48 366.185 429.242C365.625 429.004 365.119 428.654 364.699 428.213C364.279 427.773 363.954 427.252 363.742 426.681C363.53 426.111 363.437 425.503 363.468 424.895L364.668 397.151C364.732 395.881 365.277 394.682 366.193 393.8C367.11 392.917 368.328 392.416 369.6 392.399H397.344C397.952 392.397 398.555 392.519 399.115 392.757C399.675 392.995 400.18 393.345 400.6 393.786C401.02 394.226 401.346 394.747 401.558 395.318C401.769 395.888 401.863 396.496 401.832 397.103L400.632 424.847C400.568 426.118 400.022 427.317 399.106 428.199C398.19 429.082 396.972 429.583 395.7 429.599Z" fill="#FAFAFA"/>
<path d="M438 429.599H410.304C409.695 429.603 409.092 429.483 408.531 429.245C407.97 429.007 407.464 428.658 407.044 428.217C406.623 427.776 406.298 427.254 406.086 426.683C405.875 426.112 405.783 425.503 405.816 424.895L407.016 397.151C407.089 395.89 407.637 394.704 408.55 393.831C409.463 392.958 410.673 392.463 411.936 392.447H439.668C440.277 392.445 440.88 392.567 441.441 392.805C442.001 393.043 442.507 393.393 442.928 393.833C443.349 394.273 443.676 394.794 443.889 395.365C444.103 395.935 444.197 396.543 444.168 397.151L442.908 424.895C442.838 426.155 442.293 427.342 441.382 428.215C440.47 429.088 439.262 429.583 438 429.599Z" fill="#FAFAFA"/>
</g>
<path d="M224.4 472.632H196.632C196.023 472.636 195.42 472.516 194.859 472.278C194.298 472.04 193.792 471.691 193.372 471.25C192.952 470.809 192.626 470.287 192.415 469.716C192.203 469.145 192.111 468.536 192.144 467.928L193.344 440.196C193.417 438.935 193.965 437.749 194.878 436.876C195.791 436.003 197.001 435.508 198.264 435.492H226.008C226.617 435.488 227.221 435.609 227.781 435.846C228.342 436.084 228.848 436.434 229.268 436.875C229.689 437.315 230.015 437.837 230.226 438.409C230.437 438.98 230.529 439.588 230.496 440.196L229.296 467.928C229.226 469.186 228.683 470.371 227.774 471.244C226.866 472.117 225.66 472.613 224.4 472.632Z" fill="#B92C00"/>
<path d="M266.724 472.632H238.98C238.371 472.637 237.767 472.516 237.207 472.278C236.646 472.041 236.14 471.691 235.72 471.25C235.299 470.809 234.973 470.287 234.762 469.716C234.551 469.145 234.459 468.537 234.492 467.928L235.692 440.196C235.762 438.934 236.309 437.746 237.223 436.873C238.136 435.999 239.348 435.506 240.612 435.492H268.344C268.954 435.487 269.559 435.606 270.121 435.843C270.683 436.08 271.19 436.43 271.612 436.87C272.034 437.311 272.361 437.834 272.572 438.406C272.784 438.978 272.877 439.587 272.844 440.196L271.644 467.928C271.577 469.191 271.03 470.381 270.116 471.255C269.202 472.129 267.989 472.622 266.724 472.632Z" fill="#B92C00"/>
<path d="M309.06 472.632H281.328C280.719 472.636 280.116 472.516 279.555 472.278C278.995 472.04 278.489 471.691 278.068 471.25C277.648 470.809 277.322 470.287 277.111 469.716C276.9 469.145 276.808 468.536 276.84 467.928L278.04 440.196C278.11 438.934 278.658 437.746 279.571 436.872C280.485 435.999 281.697 435.506 282.96 435.492H310.8C311.41 435.488 312.014 435.609 312.575 435.846C313.136 436.084 313.643 436.434 314.065 436.874C314.486 437.315 314.813 437.836 315.025 438.408C315.238 438.979 315.332 439.588 315.3 440.196L314.04 467.928C313.97 469.201 313.414 470.398 312.488 471.273C311.561 472.148 310.335 472.634 309.06 472.632Z" fill="#B92C00"/>
<path d="M351.408 472.632H323.676C323.066 472.636 322.462 472.516 321.901 472.278C321.34 472.041 320.833 471.691 320.412 471.25C319.99 470.81 319.663 470.288 319.451 469.717C319.238 469.146 319.145 468.537 319.176 467.928L320.376 440.196C320.443 438.935 320.987 437.747 321.899 436.873C322.811 436 324.021 435.506 325.284 435.492H353.028C353.637 435.488 354.24 435.609 354.801 435.846C355.361 436.084 355.868 436.434 356.288 436.875C356.708 437.315 357.034 437.837 357.245 438.409C357.456 438.98 357.548 439.588 357.516 440.196L356.316 467.928C356.246 469.188 355.7 470.375 354.789 471.248C353.878 472.121 352.67 472.616 351.408 472.632Z" fill="#B92C00"/>
<path d="M393.756 472.632H366C365.391 472.636 364.788 472.516 364.227 472.278C363.667 472.04 363.16 471.691 362.74 471.25C362.32 470.809 361.994 470.287 361.783 469.716C361.572 469.145 361.48 468.536 361.512 467.928L362.712 440.196C362.785 438.935 363.333 437.749 364.246 436.876C365.159 436.003 366.369 435.508 367.632 435.492H395.376C395.985 435.488 396.589 435.609 397.149 435.846C397.71 436.084 398.216 436.434 398.637 436.875C399.057 437.315 399.383 437.837 399.594 438.409C399.805 438.98 399.897 439.588 399.864 440.196L398.664 467.928C398.592 469.187 398.045 470.372 397.135 471.245C396.224 472.117 395.017 472.613 393.756 472.632Z" fill="#B92C00"/>
<path d="M436.104 472.632H408.36C407.751 472.636 407.147 472.516 406.587 472.278C406.026 472.04 405.52 471.691 405.099 471.25C404.679 470.809 404.353 470.287 404.142 469.716C403.931 469.145 403.839 468.536 403.872 467.928L405.072 440.196C405.142 438.934 405.689 437.746 406.603 436.872C407.516 435.999 408.728 435.506 409.992 435.492H437.724C438.333 435.488 438.937 435.609 439.498 435.846C440.06 436.084 440.567 436.434 440.988 436.874C441.409 437.315 441.736 437.836 441.949 438.408C442.161 438.979 442.255 439.588 442.224 440.196L440.964 467.928C440.897 469.181 440.359 470.362 439.458 471.235C438.556 472.108 437.358 472.607 436.104 472.632Z" fill="#B92C00"/>
<g opacity="0.8">
<path d="M224.4 472.632H196.632C196.023 472.636 195.42 472.516 194.859 472.278C194.298 472.04 193.792 471.691 193.372 471.25C192.952 470.809 192.626 470.287 192.415 469.716C192.203 469.145 192.111 468.536 192.144 467.928L193.344 440.196C193.417 438.935 193.965 437.749 194.878 436.876C195.791 436.003 197.001 435.508 198.264 435.492H226.008C226.617 435.488 227.221 435.609 227.781 435.846C228.342 436.084 228.848 436.434 229.268 436.875C229.689 437.315 230.015 437.837 230.226 438.409C230.437 438.98 230.529 439.588 230.496 440.196L229.296 467.928C229.226 469.186 228.683 470.371 227.774 471.244C226.866 472.117 225.66 472.613 224.4 472.632Z" fill="#FAFAFA"/>
<path d="M266.724 472.632H238.98C238.371 472.637 237.767 472.516 237.207 472.278C236.646 472.041 236.14 471.691 235.72 471.25C235.299 470.809 234.973 470.287 234.762 469.716C234.551 469.145 234.459 468.537 234.492 467.928L235.692 440.196C235.762 438.934 236.309 437.746 237.223 436.873C238.136 435.999 239.348 435.506 240.612 435.492H268.344C268.954 435.487 269.559 435.606 270.121 435.843C270.683 436.08 271.19 436.43 271.612 436.87C272.034 437.311 272.361 437.834 272.572 438.406C272.784 438.978 272.877 439.587 272.844 440.196L271.644 467.928C271.577 469.191 271.03 470.381 270.116 471.255C269.202 472.129 267.989 472.622 266.724 472.632Z" fill="#FAFAFA"/>
<path d="M309.06 472.632H281.328C280.719 472.636 280.116 472.516 279.555 472.278C278.995 472.04 278.489 471.691 278.068 471.25C277.648 470.809 277.322 470.287 277.111 469.716C276.9 469.145 276.808 468.536 276.84 467.928L278.04 440.196C278.11 438.934 278.658 437.746 279.571 436.872C280.485 435.999 281.697 435.506 282.96 435.492H310.8C311.41 435.488 312.014 435.609 312.575 435.846C313.136 436.084 313.643 436.434 314.065 436.874C314.486 437.315 314.813 437.836 315.025 438.408C315.238 438.979 315.332 439.588 315.3 440.196L314.04 467.928C313.97 469.201 313.414 470.398 312.488 471.273C311.561 472.148 310.335 472.634 309.06 472.632Z" fill="#FAFAFA"/>
<path d="M351.408 472.632H323.676C323.066 472.636 322.462 472.516 321.901 472.278C321.34 472.041 320.833 471.691 320.412 471.25C319.99 470.81 319.663 470.288 319.451 469.717C319.238 469.146 319.145 468.537 319.176 467.928L320.376 440.196C320.443 438.935 320.987 437.747 321.899 436.873C322.811 436 324.021 435.506 325.284 435.492H353.028C353.637 435.488 354.24 435.609 354.801 435.846C355.361 436.084 355.868 436.434 356.288 436.875C356.708 437.315 357.034 437.837 357.245 438.409C357.456 438.98 357.548 439.588 357.516 440.196L356.316 467.928C356.246 469.188 355.7 470.375 354.789 471.248C353.878 472.121 352.67 472.616 351.408 472.632Z" fill="#FAFAFA"/>
<path d="M393.756 472.632H366C365.391 472.636 364.788 472.516 364.227 472.278C363.667 472.04 363.16 471.691 362.74 471.25C362.32 470.809 361.994 470.287 361.783 469.716C361.572 469.145 361.48 468.536 361.512 467.928L362.712 440.196C362.785 438.935 363.333 437.749 364.246 436.876C365.159 436.003 366.369 435.508 367.632 435.492H395.376C395.985 435.488 396.589 435.609 397.149 435.846C397.71 436.084 398.216 436.434 398.637 436.875C399.057 437.315 399.383 437.837 399.594 438.409C399.805 438.98 399.897 439.588 399.864 440.196L398.664 467.928C398.592 469.187 398.045 470.372 397.135 471.245C396.224 472.117 395.017 472.613 393.756 472.632Z" fill="#FAFAFA"/>
<path d="M436.104 472.632H408.36C407.751 472.636 407.147 472.516 406.587 472.278C406.026 472.04 405.52 471.691 405.099 471.25C404.679 470.809 404.353 470.287 404.142 469.716C403.931 469.145 403.839 468.536 403.872 467.928L405.072 440.196C405.142 438.934 405.689 437.746 406.603 436.872C407.516 435.999 408.728 435.506 409.992 435.492H437.724C438.333 435.488 438.937 435.609 439.498 435.846C440.06 436.084 440.567 436.434 440.988 436.874C441.409 437.315 441.736 437.836 441.949 438.408C442.161 438.979 442.255 439.588 442.224 440.196L440.964 467.928C440.897 469.181 440.359 470.362 439.458 471.235C438.556 472.108 437.358 472.607 436.104 472.632Z" fill="#FAFAFA"/>
</g>
<path d="M216.54 326.928C206.316 326.928 198.3 315.036 198.3 299.856C198.3 284.676 206.316 272.796 216.54 272.796C226.764 272.796 234.792 284.688 234.792 299.856C234.745 300.567 234.43 301.234 233.909 301.722C233.389 302.209 232.703 302.48 231.99 302.48C231.277 302.48 230.591 302.209 230.07 301.722C229.55 301.234 229.234 300.567 229.188 299.856C229.188 288.228 223.404 278.388 216.54 278.388C209.676 278.388 203.892 288.228 203.892 299.856C203.892 311.484 209.688 321.324 216.54 321.324C216.923 321.299 217.308 321.353 217.669 321.482C218.031 321.612 218.362 321.814 218.643 322.076C218.923 322.339 219.147 322.657 219.3 323.009C219.452 323.362 219.531 323.742 219.531 324.126C219.531 324.51 219.452 324.89 219.3 325.243C219.147 325.595 218.923 325.913 218.643 326.175C218.362 326.438 218.031 326.64 217.669 326.77C217.308 326.899 216.923 326.953 216.54 326.928Z" fill="#B92C00"/>
<path d="M258.888 326.928C248.664 326.928 240.648 315.036 240.648 299.856C240.648 284.676 248.664 272.796 258.888 272.796C269.112 272.796 277.2 284.688 277.2 299.856C277.154 300.567 276.838 301.234 276.318 301.722C275.798 302.209 275.111 302.48 274.398 302.48C273.685 302.48 272.999 302.209 272.479 301.722C271.958 301.234 271.643 300.567 271.596 299.856C271.596 288.228 265.812 278.388 258.948 278.388C252.084 278.388 246.3 288.228 246.3 299.856C246.3 311.484 252.096 321.324 258.948 321.324C259.66 321.37 260.327 321.686 260.814 322.206C261.302 322.727 261.573 323.413 261.573 324.126C261.573 324.839 261.302 325.525 260.814 326.045C260.327 326.566 259.66 326.881 258.948 326.928H258.888Z" fill="#B92C00"/>
<path d="M301.2 326.928C290.964 326.928 282.948 315.036 282.948 299.856C282.948 284.676 290.964 272.796 301.2 272.796C311.436 272.796 319.44 284.688 319.44 299.856C319.44 300.597 319.146 301.309 318.621 301.833C318.097 302.357 317.386 302.652 316.644 302.652C315.903 302.652 315.192 302.357 314.667 301.833C314.143 301.309 313.848 300.597 313.848 299.856C313.848 288.228 308.052 278.388 301.2 278.388C294.348 278.388 288.552 288.228 288.552 299.856C288.552 311.484 294.348 321.324 301.2 321.324C301.912 321.37 302.579 321.686 303.066 322.206C303.554 322.727 303.825 323.413 303.825 324.126C303.825 324.839 303.554 325.525 303.066 326.045C302.579 326.566 301.912 326.881 301.2 326.928Z" fill="#B92C00"/>
<path d="M343.584 326.928C333.348 326.928 325.332 315.036 325.332 299.856C325.332 284.676 333.348 272.796 343.584 272.796C353.82 272.796 361.824 284.688 361.824 299.856C361.824 300.597 361.529 301.309 361.005 301.833C360.481 302.357 359.77 302.652 359.028 302.652C358.287 302.652 357.575 302.357 357.051 301.833C356.527 301.309 356.232 300.597 356.232 299.856C356.232 288.228 350.436 278.388 343.584 278.388C336.732 278.388 330.936 288.228 330.936 299.856C330.936 311.484 336.72 321.324 343.584 321.324C344.296 321.37 344.963 321.686 345.45 322.206C345.937 322.727 346.209 323.413 346.209 324.126C346.209 324.839 345.937 325.525 345.45 326.045C344.963 326.566 344.296 326.881 343.584 326.928Z" fill="#B92C00"/>
<path d="M385.92 326.928C375.696 326.928 367.68 315.036 367.68 299.856C367.68 284.676 375.696 272.796 385.92 272.796C396.144 272.796 404.172 284.688 404.172 299.856C404.125 300.567 403.81 301.234 403.289 301.722C402.769 302.209 402.083 302.48 401.37 302.48C400.657 302.48 399.97 302.209 399.45 301.722C398.93 301.234 398.614 300.567 398.568 299.856C398.568 288.228 392.784 278.388 385.92 278.388C379.056 278.388 373.272 288.228 373.272 299.856C373.272 311.484 379.068 321.324 385.92 321.324C386.303 321.299 386.688 321.353 387.049 321.482C387.411 321.612 387.742 321.814 388.023 322.076C388.303 322.339 388.527 322.657 388.68 323.009C388.832 323.362 388.911 323.742 388.911 324.126C388.911 324.51 388.832 324.89 388.68 325.243C388.527 325.595 388.303 325.913 388.023 326.175C387.742 326.438 387.411 326.64 387.049 326.77C386.688 326.899 386.303 326.953 385.92 326.928Z" fill="#B92C00"/>
<path d="M428.268 326.928C418.044 326.928 410.028 315.036 410.028 299.856C410.028 284.676 418.044 272.796 428.268 272.796C438.492 272.796 446.52 284.688 446.52 299.856C446.474 300.567 446.158 301.234 445.638 301.722C445.118 302.209 444.431 302.48 443.718 302.48C443.005 302.48 442.319 302.209 441.799 301.722C441.278 301.234 440.963 300.567 440.916 299.856C440.916 288.228 435.12 278.388 428.268 278.388C421.416 278.388 415.62 288.228 415.62 299.856C415.62 311.484 421.416 321.324 428.268 321.324C428.98 321.37 429.647 321.686 430.134 322.206C430.622 322.727 430.893 323.413 430.893 324.126C430.893 324.839 430.622 325.525 430.134 326.045C429.647 326.566 428.98 326.881 428.268 326.928Z" fill="#B92C00"/>
<g opacity="0.3">
<path d="M216.54 326.928C206.316 326.928 198.3 315.036 198.3 299.856C198.3 284.676 206.316 272.796 216.54 272.796C226.764 272.796 234.792 284.688 234.792 299.856C234.745 300.567 234.43 301.234 233.909 301.722C233.389 302.209 232.703 302.48 231.99 302.48C231.277 302.48 230.591 302.209 230.07 301.722C229.55 301.234 229.234 300.567 229.188 299.856C229.188 288.228 223.404 278.388 216.54 278.388C209.676 278.388 203.892 288.228 203.892 299.856C203.892 311.484 209.688 321.324 216.54 321.324C216.923 321.299 217.308 321.353 217.669 321.482C218.031 321.612 218.362 321.814 218.643 322.076C218.923 322.339 219.147 322.657 219.3 323.009C219.452 323.362 219.531 323.742 219.531 324.126C219.531 324.51 219.452 324.89 219.3 325.243C219.147 325.595 218.923 325.913 218.643 326.175C218.362 326.438 218.031 326.64 217.669 326.77C217.308 326.899 216.923 326.953 216.54 326.928Z" fill="black"/>
<path d="M258.887 326.928C248.663 326.928 240.647 315.036 240.647 299.856C240.647 284.676 248.663 272.796 258.887 272.796C269.111 272.796 277.199 284.688 277.199 299.856C277.153 300.567 276.837 301.234 276.317 301.722C275.797 302.209 275.11 302.48 274.397 302.48C273.684 302.48 272.998 302.209 272.478 301.722C271.958 301.234 271.642 300.567 271.595 299.856C271.595 288.228 265.811 278.388 258.947 278.388C252.083 278.388 246.299 288.228 246.299 299.856C246.299 311.484 252.095 321.324 258.947 321.324C259.659 321.37 260.326 321.686 260.813 322.206C261.301 322.727 261.572 323.413 261.572 324.126C261.572 324.839 261.301 325.525 260.813 326.045C260.326 326.566 259.659 326.881 258.947 326.928H258.887Z" fill="black"/>
<path d="M301.2 326.928C290.964 326.928 282.948 315.036 282.948 299.856C282.948 284.676 290.964 272.796 301.2 272.796C311.436 272.796 319.44 284.688 319.44 299.856C319.44 300.597 319.146 301.309 318.621 301.833C318.097 302.357 317.386 302.652 316.644 302.652C315.903 302.652 315.192 302.357 314.667 301.833C314.143 301.309 313.848 300.597 313.848 299.856C313.848 288.228 308.052 278.388 301.2 278.388C294.348 278.388 288.552 288.228 288.552 299.856C288.552 311.484 294.348 321.324 301.2 321.324C301.912 321.37 302.579 321.686 303.066 322.206C303.554 322.727 303.825 323.413 303.825 324.126C303.825 324.839 303.554 325.525 303.066 326.045C302.579 326.566 301.912 326.881 301.2 326.928Z" fill="black"/>
<path d="M343.584 326.928C333.348 326.928 325.332 315.036 325.332 299.856C325.332 284.676 333.348 272.796 343.584 272.796C353.82 272.796 361.824 284.688 361.824 299.856C361.824 300.597 361.529 301.309 361.005 301.833C360.481 302.357 359.77 302.652 359.028 302.652C358.287 302.652 357.575 302.357 357.051 301.833C356.527 301.309 356.232 300.597 356.232 299.856C356.232 288.228 350.436 278.388 343.584 278.388C336.732 278.388 330.936 288.228 330.936 299.856C330.936 311.484 336.72 321.324 343.584 321.324C344.296 321.37 344.963 321.686 345.45 322.206C345.937 322.727 346.209 323.413 346.209 324.126C346.209 324.839 345.937 325.525 345.45 326.045C344.963 326.566 344.296 326.881 343.584 326.928Z" fill="black"/>
<path d="M385.92 326.928C375.696 326.928 367.68 315.036 367.68 299.856C367.68 284.676 375.696 272.796 385.92 272.796C396.144 272.796 404.172 284.688 404.172 299.856C404.125 300.567 403.81 301.234 403.289 301.722C402.769 302.209 402.083 302.48 401.37 302.48C400.657 302.48 399.97 302.209 399.45 301.722C398.93 301.234 398.614 300.567 398.568 299.856C398.568 288.228 392.784 278.388 385.92 278.388C379.056 278.388 373.272 288.228 373.272 299.856C373.272 311.484 379.068 321.324 385.92 321.324C386.303 321.299 386.688 321.353 387.049 321.482C387.411 321.612 387.742 321.814 388.023 322.076C388.303 322.339 388.527 322.657 388.68 323.009C388.832 323.362 388.911 323.742 388.911 324.126C388.911 324.51 388.832 324.89 388.68 325.243C388.527 325.595 388.303 325.913 388.023 326.175C387.742 326.438 387.411 326.64 387.049 326.77C386.688 326.899 386.303 326.953 385.92 326.928Z" fill="black"/>
<path d="M428.267 326.928C418.043 326.928 410.027 315.036 410.027 299.856C410.027 284.676 418.043 272.796 428.267 272.796C438.491 272.796 446.519 284.688 446.519 299.856C446.473 300.567 446.157 301.234 445.637 301.722C445.117 302.209 444.43 302.48 443.717 302.48C443.004 302.48 442.318 302.209 441.798 301.722C441.277 301.234 440.962 300.567 440.915 299.856C440.915 288.228 435.119 278.388 428.267 278.388C421.415 278.388 415.619 288.228 415.619 299.856C415.619 311.484 421.415 321.324 428.267 321.324C428.979 321.37 429.646 321.686 430.133 322.206C430.621 322.727 430.892 323.413 430.892 324.126C430.892 324.839 430.621 325.525 430.133 326.045C429.646 326.566 428.979 326.881 428.267 326.928Z" fill="black"/>
</g>
<path d="M346.416 388.104C336.624 386.16 325.632 388.428 321.708 398.748C318.552 407.052 322.596 416.052 331.308 418.248C338.988 420.18 352.236 417.816 354.972 408.96C358.104 398.832 345.372 395.544 338.232 394.944C336.084 394.764 336.096 398.124 338.232 398.304C341.484 398.58 345.204 398.76 348.084 400.548C354.084 404.304 351.612 410.328 346.5 413.208C341.388 416.088 333.552 416.808 328.5 413.616C322.98 410.1 322.8 402.372 326.1 397.332C330.432 390.672 338.34 389.928 345.468 391.332C347.58 391.752 348.48 388.512 346.356 388.092L346.416 388.104Z" fill="#B92C00"/>
<path opacity="0.1" d="M346.416 388.104C336.624 386.16 325.632 388.428 321.708 398.748C318.552 407.052 322.596 416.052 331.308 418.248C338.988 420.18 352.236 417.816 354.972 408.96C358.104 398.832 345.372 395.544 338.232 394.944C336.084 394.764 336.096 398.124 338.232 398.304C341.484 398.58 345.204 398.76 348.084 400.548C354.084 404.304 351.612 410.328 346.5 413.208C341.388 416.088 333.552 416.808 328.5 413.616C322.98 410.1 322.8 402.372 326.1 397.332C330.432 390.672 338.34 389.928 345.468 391.332C347.58 391.752 348.48 388.512 346.356 388.092L346.416 388.104Z" fill="#FAFAFA"/>
<path d="M238.38 349.451C247.745 361.866 258.185 373.43 269.58 384.011C271.164 385.487 273.552 383.111 271.98 381.611C260.78 371.239 250.513 359.904 241.296 347.735C240.012 346.031 237.096 347.735 238.404 349.427L238.38 349.451Z" fill="#B92C00"/>
<path d="M241.848 382.608C248.928 370.02 261.324 359.28 273.048 351.06C274.8 349.86 273.132 346.908 271.356 348.156C259.164 356.724 246.348 367.788 238.956 380.904C238.753 381.286 238.705 381.732 238.823 382.148C238.941 382.565 239.214 382.92 239.587 383.139C239.96 383.359 240.403 383.426 240.824 383.327C241.245 383.228 241.612 382.971 241.848 382.608Z" fill="#B92C00"/>
<g opacity="0.2">
<path d="M238.38 349.451C247.745 361.866 258.185 373.43 269.58 384.011C271.164 385.487 273.552 383.111 271.98 381.611C260.78 371.239 250.513 359.904 241.296 347.735C240.012 346.031 237.096 347.735 238.404 349.427L238.38 349.451Z" fill="black"/>
<path d="M241.848 382.607C248.928 370.019 261.324 359.279 273.048 351.059C274.8 349.859 273.132 346.907 271.356 348.155C259.164 356.723 246.348 367.787 238.956 380.903C238.753 381.285 238.705 381.731 238.823 382.147C238.941 382.564 239.214 382.919 239.587 383.138C239.96 383.358 240.403 383.425 240.824 383.326C241.245 383.227 241.612 382.97 241.848 382.607Z" fill="black"/>
</g>
<path d="M371.844 360.192H393.744C394.163 360.156 394.554 359.964 394.839 359.654C395.124 359.344 395.282 358.939 395.282 358.518C395.282 358.097 395.124 357.691 394.839 357.381C394.554 357.071 394.163 356.879 393.744 356.844H371.844C371.424 356.879 371.033 357.071 370.749 357.381C370.464 357.691 370.306 358.097 370.306 358.518C370.306 358.939 370.464 359.344 370.749 359.654C371.033 359.964 371.424 360.156 371.844 360.192Z" fill="#B92C00"/>
<path d="M371.592 366.42H384.288C384.734 366.42 385.161 366.243 385.476 365.928C385.791 365.612 385.968 365.185 385.968 364.74C385.968 364.294 385.791 363.867 385.476 363.552C385.161 363.237 384.734 363.06 384.288 363.06H371.592C371.147 363.06 370.719 363.237 370.404 363.552C370.089 363.867 369.912 364.294 369.912 364.74C369.912 365.185 370.089 365.612 370.404 365.928C370.719 366.243 371.147 366.42 371.592 366.42Z" fill="#B92C00"/>
<g opacity="0.1">
<path d="M371.844 360.192H393.744C394.163 360.156 394.554 359.964 394.839 359.654C395.124 359.344 395.282 358.939 395.282 358.518C395.282 358.097 395.124 357.691 394.839 357.381C394.554 357.071 394.163 356.879 393.744 356.844H371.844C371.424 356.879 371.033 357.071 370.749 357.381C370.464 357.691 370.306 358.097 370.306 358.518C370.306 358.939 370.464 359.344 370.749 359.654C371.033 359.964 371.424 360.156 371.844 360.192Z" fill="#FAFAFA"/>
<path d="M371.592 366.42H384.288C384.734 366.42 385.161 366.243 385.476 365.928C385.791 365.612 385.968 365.185 385.968 364.74C385.968 364.294 385.791 363.867 385.476 363.552C385.161 363.237 384.734 363.06 384.288 363.06H371.592C371.147 363.06 370.719 363.237 370.404 363.552C370.089 363.867 369.912 364.294 369.912 364.74C369.912 365.185 370.089 365.612 370.404 365.928C370.719 366.243 371.147 366.42 371.592 366.42Z" fill="#FAFAFA"/>
</g>
<path d="M240.672 446.16H259.452C259.898 446.16 260.325 445.983 260.64 445.668C260.955 445.353 261.132 444.925 261.132 444.48C261.132 444.034 260.955 443.607 260.64 443.292C260.325 442.977 259.898 442.8 259.452 442.8H240.672C240.227 442.8 239.799 442.977 239.484 443.292C239.169 443.607 238.992 444.034 238.992 444.48C238.992 444.925 239.169 445.353 239.484 445.668C239.799 445.983 240.227 446.16 240.672 446.16Z" fill="#B92C00"/>
<path d="M240 453.372H264.36C264.806 453.372 265.233 453.195 265.548 452.88C265.863 452.565 266.04 452.137 266.04 451.692C266.04 451.246 265.863 450.819 265.548 450.504C265.233 450.189 264.806 450.012 264.36 450.012H240C239.555 450.012 239.127 450.189 238.812 450.504C238.497 450.819 238.32 451.246 238.32 451.692C238.32 452.137 238.497 452.565 238.812 452.88C239.127 453.195 239.555 453.372 240 453.372Z" fill="#B92C00"/>
<path d="M240 460.799H252.18C252.626 460.799 253.053 460.622 253.368 460.307C253.683 459.992 253.86 459.565 253.86 459.119C253.86 458.674 253.683 458.247 253.368 457.931C253.053 457.616 252.626 457.439 252.18 457.439H240C239.555 457.439 239.127 457.616 238.812 457.931C238.497 458.247 238.32 458.674 238.32 459.119C238.32 459.565 238.497 459.992 238.812 460.307C239.127 460.622 239.555 460.799 240 460.799Z" fill="#B92C00"/>
<g opacity="0.1">
<path d="M240.672 446.16H259.452C259.898 446.16 260.325 445.983 260.64 445.668C260.955 445.353 261.132 444.925 261.132 444.48C261.132 444.034 260.955 443.607 260.64 443.292C260.325 442.977 259.898 442.8 259.452 442.8H240.672C240.227 442.8 239.799 442.977 239.484 443.292C239.169 443.607 238.992 444.034 238.992 444.48C238.992 444.925 239.169 445.353 239.484 445.668C239.799 445.983 240.227 446.16 240.672 446.16Z" fill="#FAFAFA"/>
<path d="M240 453.372H264.36C264.806 453.372 265.233 453.195 265.548 452.88C265.863 452.565 266.04 452.137 266.04 451.692C266.04 451.246 265.863 450.819 265.548 450.504C265.233 450.189 264.806 450.012 264.36 450.012H240C239.555 450.012 239.127 450.189 238.812 450.504C238.497 450.819 238.32 451.246 238.32 451.692C238.32 452.137 238.497 452.565 238.812 452.88C239.127 453.195 239.555 453.372 240 453.372Z" fill="#FAFAFA"/>
<path d="M240 460.799H252.18C252.626 460.799 253.053 460.622 253.368 460.307C253.683 459.992 253.86 459.565 253.86 459.119C253.86 458.674 253.683 458.247 253.368 457.931C253.053 457.616 252.626 457.439 252.18 457.439H240C239.555 457.439 239.127 457.616 238.812 457.931C238.497 458.247 238.32 458.674 238.32 459.119C238.32 459.565 238.497 459.992 238.812 460.307C239.127 460.622 239.555 460.799 240 460.799Z" fill="#FAFAFA"/>
</g>
<path d="M108.228 257.748L113.904 257.496L111.336 268.296C109.311 266.909 107.464 265.277 105.84 263.436C105.372 262.885 105.139 262.172 105.193 261.451C105.247 260.73 105.583 260.059 106.128 259.584L108.228 257.748Z" fill="#E4897B"/>
<path d="M120.492 263.316L117.948 272.1L111.336 268.272L113.904 257.496L120.492 263.316Z" fill="#E4897B"/>
<path d="M119.373 211.169L107.759 212.244L134.397 499.938L146.011 498.862L119.373 211.169Z" fill="#B92C00"/>
<path opacity="0.3" d="M119.373 211.169L107.759 212.244L134.397 499.938L146.011 498.862L119.373 211.169Z" fill="black"/>
<path d="M142.607 209.012L130.992 210.087L157.63 497.78L169.244 496.705L142.607 209.012Z" fill="#B92C00"/>
<path opacity="0.3" d="M142.607 209.012L130.992 210.087L157.63 497.78L169.244 496.705L142.607 209.012Z" fill="black"/>
<path d="M130.996 210.09L119.382 211.165L146.02 498.858L157.634 497.783L130.996 210.09Z" fill="#B92C00"/>
<path opacity="0.1" d="M130.996 210.09L119.382 211.165L146.02 498.858L157.634 497.783L130.996 210.09Z" fill="black"/>
<path d="M128.544 189.972L118.092 190.944L107.76 212.244L142.608 209.016L128.544 189.972Z" fill="#B92C00"/>
<g opacity="0.8">
<path d="M128.544 189.972L118.092 190.944L107.76 212.244L142.608 209.016L128.544 189.972Z" fill="#FAFAFA"/>
</g>
<path d="M122.52 181.812L118.092 190.944L128.544 189.972L122.52 181.812Z" fill="#263238"/>
<path d="M210.336 198.072C211.536 199.272 212.532 200.412 213.564 201.672C214.596 202.932 215.58 204.072 216.564 205.272C218.544 207.672 220.392 210.204 222.192 212.784C225.903 218.03 229.033 223.663 231.528 229.584C231.828 230.352 232.104 231.156 232.392 231.984L232.824 233.184C233.062 233.903 233.231 234.642 233.328 235.392C233.589 237.78 233.272 240.196 232.404 242.436C231.109 245.743 229.294 248.822 227.028 251.556C223.022 256.46 218.409 260.835 213.3 264.576L208.776 259.776C212.337 255.325 215.592 250.639 218.52 245.748C219.803 243.659 220.788 241.401 221.448 239.04C221.63 238.461 221.651 237.843 221.508 237.252L221.1 236.364C220.824 235.776 220.584 235.164 220.284 234.588C217.744 229.659 214.772 224.965 211.404 220.56C209.724 218.268 207.948 216.036 206.148 213.804C205.248 212.7 204.336 211.596 203.4 210.516L200.664 207.36L210.336 198.072Z" fill="#E4897B"/>
<path d="M201.517 263.436L206.629 273.552L211.633 269.244L207.529 262.056L201.517 263.436Z" fill="#E4897B"/>
<path d="M163.008 204C159.896 209.928 156.664 215.788 153.312 221.58C151.668 224.496 149.94 227.364 148.26 230.256L145.68 234.576L145.032 235.656C144.708 236.172 144.348 236.784 144.024 237.192C143.7 237.6 143.376 238.092 143.064 238.464C142.752 238.836 142.416 239.256 142.104 239.604C139.68 242.245 137.099 244.737 134.376 247.068C131.748 249.312 129.12 251.496 126.408 253.572C121.044 257.76 115.536 261.66 109.824 265.38L105.708 260.196L119.928 246.192C122.256 243.792 124.608 241.536 126.828 239.16C129.009 236.924 131.064 234.568 132.984 232.104C133.216 231.816 133.42 231.54 133.596 231.276C133.8 230.988 133.944 230.748 134.088 230.508C134.212 230.315 134.324 230.115 134.424 229.908L134.976 228.792L137.196 224.268C138.72 221.28 140.208 218.268 141.756 215.304C144.82 209.328 148.02 203.42 151.356 197.58L163.008 204Z" fill="#E4897B"/>
<path d="M196.692 163.464C196.536 164.16 196.788 164.82 197.232 164.94C197.676 165.06 198.168 164.58 198.324 163.884C198.48 163.188 198.216 162.528 197.772 162.408C197.328 162.288 196.8 162.768 196.692 163.464Z" fill="#263238"/>
<path d="M196.716 164.808C197.092 167.148 197.778 169.428 198.756 171.588C198.204 171.806 197.611 171.901 197.018 171.866C196.425 171.831 195.847 171.666 195.324 171.384L196.716 164.808Z" fill="#DE5753"/>
<path d="M198.528 159.24C198.443 159.24 198.359 159.215 198.288 159.168C197.845 158.897 197.342 158.738 196.824 158.705C196.305 158.671 195.786 158.765 195.312 158.976C195.208 159.017 195.093 159.015 194.99 158.973C194.887 158.931 194.805 158.85 194.76 158.748C194.72 158.645 194.721 158.529 194.763 158.426C194.806 158.324 194.886 158.241 194.988 158.196C195.595 157.936 196.255 157.826 196.913 157.876C197.572 157.926 198.208 158.135 198.768 158.484C198.814 158.514 198.853 158.553 198.883 158.599C198.913 158.644 198.934 158.696 198.944 158.749C198.954 158.803 198.953 158.858 198.941 158.912C198.93 158.965 198.908 159.016 198.876 159.06C198.837 159.116 198.785 159.162 198.724 159.193C198.664 159.225 198.596 159.241 198.528 159.24Z" fill="#263238"/>
<path d="M172.416 166.116C173.928 172.572 175.644 184.38 171.3 188.688C171.3 188.688 173.316 195.228 185.304 195.228C198.504 195.228 191.304 188.688 191.304 188.688C184.044 186.972 184.02 181.632 185.076 176.628L172.416 166.116Z" fill="#E4897B"/>
<path d="M169.668 190.932C168.636 188.868 167.508 186.492 169.668 185.748C171.996 184.932 184.92 184.104 189.444 185.628C190.649 185.95 191.682 186.729 192.322 187.8C192.963 188.871 193.162 190.149 192.876 191.364L169.668 190.932Z" fill="#B92C00"/>
<path opacity="0.6" d="M169.668 190.932C168.636 188.868 167.508 186.492 169.668 185.748C171.996 184.932 184.92 184.104 189.444 185.628C190.649 185.95 191.682 186.729 192.322 187.8C192.963 188.871 193.162 190.149 192.876 191.364L169.668 190.932Z" fill="#FAFAFA"/>
<path d="M152.401 492C151.626 491.996 150.854 491.911 150.097 491.748C150.058 491.741 150.022 491.723 149.994 491.695C149.966 491.667 149.947 491.631 149.941 491.592C149.933 491.552 149.936 491.51 149.951 491.472C149.966 491.433 149.992 491.4 150.025 491.376C150.121 491.304 152.425 489.648 153.769 489.936C153.914 489.961 154.052 490.019 154.172 490.104C154.292 490.189 154.392 490.3 154.465 490.428C154.573 490.571 154.631 490.746 154.631 490.926C154.631 491.106 154.573 491.28 154.465 491.424C154.177 491.892 153.301 492 152.401 492ZM150.685 491.448C152.005 491.664 153.805 491.664 154.165 491.172C154.165 491.172 154.309 490.98 154.105 490.632C154.061 490.556 154 490.49 153.927 490.44C153.855 490.39 153.772 490.357 153.685 490.344C152.595 490.414 151.551 490.807 150.685 491.472V491.448Z" fill="#FAFAFA"/>
<path d="M150.144 491.784H150.036C150.005 491.766 149.979 491.74 149.962 491.708C149.945 491.676 149.937 491.64 149.94 491.604C149.94 491.496 150.048 488.952 151.044 488.112C151.163 488.005 151.305 487.925 151.458 487.877C151.611 487.83 151.773 487.816 151.932 487.836C152.094 487.836 152.251 487.892 152.375 487.995C152.5 488.098 152.585 488.241 152.616 488.4C152.808 489.384 151.128 491.304 150.216 491.796L150.144 491.784ZM151.788 488.184C151.615 488.186 151.449 488.25 151.32 488.364C150.731 489.171 150.405 490.138 150.384 491.136C151.248 490.452 152.316 489 152.208 488.424C152.208 488.364 152.208 488.22 151.884 488.184H151.788Z" fill="#FAFAFA"/>
<path d="M205.344 491.999C204.434 491.999 203.526 491.915 202.632 491.747C202.59 491.741 202.551 491.721 202.521 491.69C202.491 491.66 202.471 491.621 202.464 491.579C202.457 491.538 202.463 491.496 202.48 491.457C202.497 491.419 202.524 491.386 202.56 491.363C203.004 491.111 206.916 488.867 207.864 490.415C207.959 490.551 208.01 490.712 208.01 490.877C208.01 491.043 207.959 491.204 207.864 491.339C207.6 491.867 206.472 491.999 205.344 491.999ZM203.292 491.435C204.948 491.675 207.18 491.639 207.564 491.099C207.564 491.099 207.684 490.931 207.504 490.631C206.976 489.779 204.6 490.799 203.292 491.459V491.435Z" fill="#FAFAFA"/>
<path d="M202.669 491.784C202.629 491.795 202.588 491.795 202.549 491.784C202.518 491.763 202.495 491.734 202.48 491.7C202.465 491.666 202.46 491.629 202.465 491.592C202.465 491.496 202.609 489.12 203.665 488.196C203.825 488.05 204.016 487.941 204.223 487.879C204.431 487.817 204.65 487.802 204.865 487.836C205.453 487.896 205.621 488.196 205.657 488.436C205.825 489.456 203.821 491.316 202.765 491.796L202.669 491.784ZM204.685 488.184C204.418 488.181 204.161 488.28 203.965 488.46C203.334 489.233 202.968 490.188 202.921 491.184C203.977 490.536 205.321 489.06 205.237 488.448C205.237 488.388 205.237 488.232 204.805 488.184H204.685Z" fill="#FAFAFA"/>
<path d="M192.973 491.568H201.793L201.877 471.156H193.069L192.973 491.568Z" fill="#E4897B"/>
<path d="M140.04 491.568H148.86L152.508 471.156H143.688L140.04 491.568Z" fill="#E4897B"/>
<path d="M149.448 490.548H139.548C139.373 490.546 139.203 490.606 139.068 490.718C138.934 490.831 138.844 490.987 138.816 491.16L137.376 498.996C137.346 499.19 137.359 499.389 137.414 499.578C137.469 499.767 137.564 499.941 137.693 500.09C137.822 500.238 137.982 500.357 138.161 500.437C138.34 500.518 138.535 500.558 138.732 500.556C142.188 500.496 143.856 500.292 148.212 500.292C150.888 500.292 156.42 500.58 160.128 500.58C163.836 500.58 164.16 496.98 162.636 496.584C155.784 495.096 153.144 493.044 150.9 491.1C150.499 490.745 149.983 490.549 149.448 490.548Z" fill="#263238"/>
<path d="M201.696 490.548H192.096C191.921 490.546 191.751 490.606 191.617 490.718C191.482 490.831 191.393 490.987 191.364 491.16L189.924 498.996C189.89 499.189 189.9 499.387 189.952 499.576C190.003 499.765 190.096 499.94 190.223 500.089C190.351 500.238 190.509 500.357 190.688 500.438C190.866 500.518 191.06 500.559 191.256 500.556C194.724 500.496 199.728 500.292 204.096 500.292C209.208 500.292 213.624 500.58 219.612 500.58C223.212 500.58 224.088 496.98 222.564 496.584C215.604 495.072 209.964 494.916 203.868 491.244C203.223 490.814 202.471 490.573 201.696 490.548Z" fill="#263238"/>
<path d="M154.488 190.68C146.292 192.576 137.688 215.1 137.688 215.1L154.716 226.476C158.626 220.548 162.053 214.316 164.964 207.84C169.464 197.532 162.852 188.748 154.488 190.68Z" fill="#B92C00"/>
<path opacity="0.7" d="M154.488 190.68C146.292 192.576 137.688 215.1 137.688 215.1L154.716 226.476C158.626 220.548 162.053 214.316 164.964 207.84C169.464 197.532 162.852 188.748 154.488 190.68Z" fill="black"/>
<path d="M160.956 205.044L153.912 225.936L154.716 226.476C154.716 226.476 157.932 221.676 161.352 215.28L160.956 205.044Z" fill="#B92C00"/>
<path opacity="0.8" d="M160.956 205.044L153.912 225.936L154.716 226.476C154.716 226.476 157.932 221.676 161.352 215.28L160.956 205.044Z" fill="black"/>
<path d="M209.484 230.064C209.412 239.904 208.824 252.144 207.36 267.336H160.2C159.588 260.136 162.78 224.784 154.488 190.68C159.675 189.674 164.922 189.009 170.196 188.688C176.871 188.303 183.562 188.303 190.236 188.688C194.839 189.135 199.401 189.937 203.88 191.088C203.88 191.088 207.912 195.456 209.136 215.94C209.376 220.032 209.508 224.688 209.484 230.064Z" fill="#B92C00"/>
<path opacity="0.7" d="M209.484 230.064C209.412 239.904 208.824 252.144 207.36 267.336H160.2C159.588 260.136 162.78 224.784 154.488 190.68C159.675 189.674 164.922 189.009 170.196 188.688C176.871 188.303 183.562 188.303 190.236 188.688C194.839 189.135 199.401 189.937 203.88 191.088C203.88 191.088 207.912 195.456 209.136 215.94C209.376 220.032 209.508 224.688 209.484 230.064Z" fill="black"/>
<path d="M209.484 230.064C206.628 224.856 201.444 214.404 202.176 208.464L209.136 216C209.376 220.032 209.508 224.688 209.484 230.064Z" fill="#B92C00"/>
<path opacity="0.8" d="M209.484 230.064C206.628 224.856 201.444 214.404 202.176 208.464L209.136 216C209.376 220.032 209.508 224.688 209.484 230.064Z" fill="black"/>
<path d="M194.64 199.104C193.896 207.504 212.94 227.712 212.94 227.712L228.204 215.28C224.207 208.534 219.417 202.289 213.936 196.68C205.008 188.052 195.48 189.696 194.64 199.104Z" fill="#B92C00"/>
<path opacity="0.7" d="M194.64 199.104C193.896 207.504 212.94 227.712 212.94 227.712L228.204 215.28C224.207 208.534 219.417 202.289 213.936 196.68C205.008 188.052 195.48 189.696 194.64 199.104Z" fill="black"/>
<path d="M201.876 471.168L201.829 481.68H193.021L193.057 471.168H201.876Z" fill="#CE6F64"/>
<path d="M143.688 471.168H152.508L150.624 481.68H141.804L143.688 471.168Z" fill="#CE6F64"/>
<path d="M174 156.18C172.716 164.868 171.528 169.86 174.864 175.38C175.924 177.167 177.454 178.631 179.287 179.611C181.119 180.592 183.185 181.052 185.261 180.942C187.337 180.832 189.342 180.156 191.061 178.987C192.78 177.818 194.146 176.201 195.012 174.312C198.456 167.112 199.992 154.104 192.42 148.608C190.822 147.374 188.928 146.583 186.927 146.314C184.926 146.044 182.89 146.307 181.023 147.074C179.156 147.842 177.524 149.087 176.291 150.686C175.058 152.284 174.268 154.179 174 156.18Z" fill="#E4897B"/>
<path d="M200.1 152.064C197.503 153.482 194.646 154.36 191.7 154.644C189.504 164.688 183.66 176.244 174.204 172.92C170.604 171.72 167.004 162.996 166.632 155.256C166.008 156.012 165.588 156.996 165.264 157.404C164.725 153.964 165.114 150.443 166.392 147.204C169.008 139.788 170.748 144.708 173.592 140.208C175.428 137.232 178.692 135.696 184.392 135.504C182.796 136.332 182.496 137.664 184.86 137.472C187.224 137.28 197.316 136.728 203.196 140.7C199.224 141.6 201.648 147.9 206.952 144.54C205.02 147.672 202.62 150.648 200.1 152.064Z" fill="#263238"/>
<path d="M184.908 161.556C184.942 163.766 185.682 165.906 187.02 167.664C188.808 169.968 190.86 168.864 191.352 166.272C191.784 163.968 191.352 159.984 189.12 158.592C186.888 157.2 184.896 158.916 184.908 161.556Z" fill="#E4897B"/>
<path d="M174.156 141.144C172.959 141.068 171.798 140.7 170.775 140.073C169.753 139.445 168.899 138.577 168.288 137.544C168.288 137.544 168.132 144.576 174.156 141.144Z" fill="#1E2A4C"/>
<path d="M190.62 267.336C190.62 267.336 183.228 334.704 178.704 359.94C173.76 387.54 154.704 479.652 154.704 479.652H138.504C138.504 479.652 150 389.808 152.4 362.4C154.98 332.7 160.248 267.288 160.248 267.288L190.62 267.336Z" fill="#B92C00"/>
<path opacity="0.6" d="M190.62 267.336C190.62 267.336 183.228 334.704 178.704 359.94C173.76 387.54 154.704 479.652 154.704 479.652H138.504C138.504 479.652 150 389.808 152.4 362.4C154.98 332.7 160.248 267.288 160.248 267.288L190.62 267.336Z" fill="#FAFAFA"/>
<path d="M156.996 473.7C157.068 473.7 155.568 479.904 155.568 479.904H137.412L137.532 474.372L156.996 473.7Z" fill="#B92C00"/>
<path opacity="0.1" d="M156.996 473.7C157.068 473.7 155.568 479.904 155.568 479.904H137.412L137.532 474.372L156.996 473.7Z" fill="#FAFAFA"/>
<path d="M185.232 291.335C173.748 293.603 176.64 336.743 178.884 358.931C181.62 343.247 185.34 313.067 187.848 291.647C187.036 291.252 186.114 291.142 185.232 291.335Z" fill="#B92C00"/>
<path opacity="0.4" d="M185.232 291.335C173.748 293.603 176.64 336.743 178.884 358.931C181.62 343.247 185.34 313.067 187.848 291.647C187.036 291.252 186.114 291.142 185.232 291.335Z" fill="#FAFAFA"/>
<path d="M207.349 267.336C207.349 267.336 211.117 333.24 211.189 360.132C211.273 388.092 205.045 479.652 205.045 479.652H190.105C190.105 479.652 186.085 389.724 184.357 362.268C182.485 332.328 176.353 267.336 176.353 267.336H207.349Z" fill="#B92C00"/>
<path opacity="0.6" d="M207.349 267.336C207.349 267.336 211.117 333.24 211.189 360.132C211.273 388.092 205.045 479.652 205.045 479.652H190.105C190.105 479.652 186.085 389.724 184.357 362.268C182.485 332.328 176.353 267.336 176.353 267.336H207.349Z" fill="#FAFAFA"/>
<path d="M210.961 258.864L206.773 259.2C206.431 259.229 206.101 259.333 205.805 259.506C205.509 259.678 205.256 259.914 205.062 260.197C204.869 260.48 204.742 260.802 204.689 261.14C204.636 261.478 204.659 261.824 204.757 262.152L206.485 267.972C206.63 268.445 206.888 268.876 207.236 269.228C207.585 269.579 208.012 269.842 208.484 269.993C208.955 270.143 209.456 270.178 209.944 270.094C210.431 270.009 210.891 269.809 211.285 269.508C213.448 267.495 214.999 264.912 215.761 262.056L210.961 258.864Z" fill="#E4897B"/>
<path d="M201.504 468.924C201.464 468.918 201.427 468.898 201.401 468.867C201.374 468.836 201.36 468.797 201.36 468.756C203.016 443.424 206.856 382.116 206.784 360.132C206.784 337.632 204.048 287.304 203.184 272.412C203.183 272.392 203.185 272.372 203.192 272.353C203.198 272.334 203.209 272.317 203.222 272.302C203.236 272.288 203.252 272.276 203.27 272.268C203.289 272.26 203.308 272.256 203.328 272.256C203.368 272.256 203.406 272.271 203.435 272.297C203.464 272.324 203.481 272.361 203.484 272.4C204.3 287.292 206.976 337.62 207.084 360.132C207.156 382.128 203.316 443.436 201.66 468.78C201.66 468.8 201.656 468.82 201.648 468.838C201.64 468.856 201.629 468.873 201.614 468.886C201.599 468.9 201.582 468.91 201.563 468.917C201.544 468.923 201.524 468.925 201.504 468.924Z" fill="#B92C00"/>
<path opacity="0.3" d="M201.504 468.924C201.464 468.918 201.427 468.898 201.401 468.867C201.374 468.836 201.36 468.797 201.36 468.756C203.016 443.424 206.856 382.116 206.784 360.132C206.784 337.632 204.048 287.304 203.184 272.412C203.183 272.392 203.185 272.372 203.192 272.353C203.198 272.334 203.209 272.317 203.222 272.302C203.236 272.288 203.252 272.276 203.27 272.268C203.289 272.26 203.308 272.256 203.328 272.256C203.368 272.256 203.406 272.271 203.435 272.297C203.464 272.324 203.481 272.361 203.484 272.4C204.3 287.292 206.976 337.62 207.084 360.132C207.156 382.128 203.316 443.436 201.66 468.78C201.66 468.8 201.656 468.82 201.648 468.838C201.64 468.856 201.629 468.873 201.614 468.886C201.599 468.9 201.582 468.91 201.563 468.917C201.544 468.923 201.524 468.925 201.504 468.924Z" fill="#FAFAFA"/>
<path d="M207.684 473.7C207.756 473.7 207.084 479.904 207.084 479.904H188.916L188.208 474.372L207.684 473.7Z" fill="#B92C00"/>
<path opacity="0.1" d="M207.684 473.7C207.756 473.7 207.084 479.904 207.084 479.904H188.916L188.208 474.372L207.684 473.7Z" fill="#FAFAFA"/>
</svg>
