<svg width="37" height="37" viewBox="0 0 37 37" fill="none" xmlns="http://www.w3.org/2000/svg">
<path d="M34.6719 4.08594H27.2891V1.27344C27.2891 1.08008 27.1309 0.921875 26.9375 0.921875H24.4766C24.2832 0.921875 24.125 1.08008 24.125 1.27344V4.08594H12.875V1.27344C12.875 1.08008 12.7168 0.921875 12.5234 0.921875H10.0625C9.86914 0.921875 9.71094 1.08008 9.71094 1.27344V4.08594H2.32812C1.55029 4.08594 0.921875 4.71436 0.921875 5.49219V34.6719C0.921875 35.4497 1.55029 36.0781 2.32812 36.0781H34.6719C35.4497 36.0781 36.0781 35.4497 36.0781 34.6719V5.49219C36.0781 4.71436 35.4497 4.08594 34.6719 4.08594ZM32.9141 32.9141H4.08594V16.2148H32.9141V32.9141ZM32.9141 13.2266H4.08594V7.25H9.71094V9.35938C9.71094 9.55273 9.86914 9.71094 10.0625 9.71094H12.5234C12.7168 9.71094 12.875 9.55273 12.875 9.35938V7.25H24.125V9.35938C24.125 9.55273 24.2832 9.71094 24.4766 9.71094H26.9375C27.1309 9.71094 27.2891 9.55273 27.2891 9.35938V7.25H32.9141V13.2266Z" fill="#B92C00"/>
</svg>
